<svg width="441" height="28" viewBox="0 0 441 28" fill="none" xmlns="http://www.w3.org/2000/svg">
<path d="M415.81 15.7504C416.349 16.0122 416.975 16.1461 417.677 16.0974C417.698 16.0978 417.719 16.0914 417.74 16.0986C418.542 16.2901 419.351 16.1412 420.157 16.149C420.627 16.1507 421.087 16.2134 421.567 16.2834C422.141 16.3755 422.77 16.3323 423.367 16.275C423.85 16.2292 424.3 16.2033 424.78 16.3073C425.019 16.3593 425.291 16.4119 425.542 16.4028C426.338 16.3899 427.152 16.5272 427.94 16.3507C427.982 16.3446 428.034 16.3388 428.065 16.3529C428.95 16.6073 429.709 16.3485 430.497 16.1516C430.697 16.1007 430.927 16.0981 431.136 16.1018C431.565 16.1164 431.963 16.1099 432.25 15.8631C432.293 15.823 432.398 15.8113 432.524 15.7727C432.677 15.9662 432.852 16.126 433.24 16.133C433.365 16.1352 433.509 16.2536 433.602 16.337C434.096 16.8023 434.847 16.9793 435.618 17.1431C436.542 16.9894 437.394 17.3454 438.305 17.3141C438.828 17.2963 439.127 17.581 439.363 17.8304C439.62 18.1007 439.708 18.4429 439.943 18.7264C440.261 19.1067 440.024 19.4771 440.007 19.8446C439.992 20.1167 439.872 20.3734 439.409 20.4808C439.252 20.5189 439.145 20.6395 438.998 20.6778C438.829 20.7224 438.64 20.753 438.463 20.7362C438.076 20.7088 437.701 20.6407 437.324 20.6067C437.021 20.5808 436.718 20.5889 436.415 20.5494C435.903 20.4857 435.472 20.5801 435.247 20.8757C434.937 21.272 434.38 21.3914 433.792 21.5034C433.771 21.5098 433.749 21.5162 433.729 21.509C432.906 21.3035 432.125 21.6232 431.3 21.5538C430.443 21.4838 429.584 21.5024 428.713 21.6229C427.895 21.7376 427.027 21.681 426.179 21.6862C425.353 21.6849 424.526 21.6564 423.699 21.6619C423.396 21.6632 423.102 21.7124 422.808 21.7343C422.599 21.751 422.379 21.7743 422.169 21.7705C421.604 21.7603 421.05 21.7231 420.493 21.8697C420.304 21.9207 420.033 21.8546 419.792 21.8298C419.562 21.812 419.292 21.7254 419.103 21.7629C418.315 21.9325 417.51 21.8635 416.704 21.8694C416.338 21.8696 415.972 21.863 415.634 22C415.466 22.0651 415.214 22.0605 415.005 22.0636C414.136 22.0615 413.258 22.032 412.389 22.0368C412.065 22.0378 411.75 22.0934 411.435 22.115C411.288 22.1259 411.099 22.1702 410.995 22.1343C410.569 21.9767 410.17 22.0513 409.75 22.1254C409.487 22.1752 409.184 22.1493 408.902 22.1442C408.4 22.1351 407.908 22.1058 407.445 22.2814C407.255 22.3529 406.983 22.3343 406.742 22.3368C405.78 22.3331 404.827 22.3159 403.865 22.3053C403.687 22.3021 403.499 22.2851 403.341 22.3231C402.605 22.5074 401.832 22.4185 401.079 22.4185C400.451 22.4208 399.833 22.4233 399.204 22.5141C398.626 22.5991 397.989 22.5399 397.382 22.529C396.765 22.5178 396.168 22.5479 395.59 22.6805C395.369 22.731 395.118 22.7265 394.877 22.7222C392.92 22.7005 390.953 22.6718 388.996 22.6569C388.609 22.6568 388.232 22.7044 387.844 22.7315C387.802 22.7376 387.749 22.7571 387.718 22.7497C387.228 22.6182 386.786 22.7669 386.335 22.8405C385.159 23.0236 383.967 22.9613 382.774 22.967C382.261 22.9714 381.758 23.0304 381.246 22.9394C381.111 22.9166 380.912 22.9198 380.796 22.9586C380.111 23.2255 379.369 23.1372 378.627 23.1101C378.24 23.0964 377.852 23.103 377.465 23.1028C377.402 23.1017 377.329 23.114 377.266 23.106C376.442 22.9618 375.623 23.0968 374.806 23.123C374.115 23.1446 373.415 23.1115 372.724 23.1058C369.239 23.0702 365.755 23.0346 362.27 23.0126C361.904 23.0128 361.546 23.0949 361.19 23.0953C360.636 23.0989 360.071 23.0751 359.506 23.0581C359.401 23.0562 359.287 22.9861 359.203 23.005C358.184 23.225 357.13 23.0629 356.094 23.0647C355.361 23.0651 354.64 23.0384 353.91 22.8822C353.347 22.7631 352.665 22.8666 352.036 22.8893C351.712 22.8971 351.396 22.9731 351.082 22.9743C350.213 22.979 349.335 22.9428 348.466 22.9475C348.215 22.9498 347.963 23.0134 347.721 23.0499C347.511 23.0801 347.301 23.124 347.091 23.1475C346.819 23.1834 346.536 23.2124 346.263 23.2415C346.137 23.2529 345.99 23.3047 345.886 23.2756C344.969 23.0411 344.052 23.3651 343.144 23.2329C342.914 23.2016 342.674 23.1768 342.444 23.1522C342.34 23.1435 342.236 23.1212 342.131 23.1261C341.555 23.143 340.968 23.1664 340.392 23.1969C339.942 23.2229 339.501 23.2694 339.051 23.2953C338.883 23.3059 338.705 23.2959 338.549 23.2658C337.652 23.0862 336.72 23.0898 335.829 23.1827C335.2 23.2463 334.593 23.2762 333.965 23.2513C333.881 23.2498 333.787 23.2549 333.704 23.2329C332.412 22.8963 331.068 23.1241 329.762 23.0324C329.699 23.0313 329.615 23.0229 329.573 23.0426C329.055 23.3057 328.461 23.1792 327.896 23.1758C326.808 23.1698 325.719 23.1842 324.63 23.1782C324.327 23.1796 324.024 23.1332 323.721 23.121C323.334 23.1072 322.937 23.0864 322.549 23.093C322.005 23.0968 321.461 23.1006 320.916 23.1317C319.962 23.1826 319.023 23.043 318.07 23.0803C317.682 23.0938 317.305 23.1346 316.917 23.1685C316.592 23.1967 316.278 23.2115 315.977 23.0766C315.634 22.9206 315.247 22.9408 314.849 22.9473C313.896 22.971 312.943 22.9742 311.991 22.9639C310.882 22.9507 309.773 22.9034 308.664 22.8834C307.336 22.8526 306.007 22.8355 304.678 22.8115C304.49 22.8081 304.281 22.7839 304.104 22.733C303.073 22.4284 302.035 22.5186 300.997 22.6566C300.661 22.705 300.305 22.7326 299.97 22.7334C298.463 22.7198 296.967 22.6792 295.46 22.6657C295.146 22.66 294.821 22.7222 294.506 22.7506C294.296 22.7673 294.076 22.811 293.867 22.8072C292.601 22.7844 291.335 22.7547 290.079 22.7184C289.891 22.715 289.704 22.664 289.505 22.64C289.276 22.6086 289.036 22.5566 288.806 22.5524C287.958 22.5303 287.11 22.5287 286.263 22.5066C285.824 22.4986 285.395 22.4637 284.956 22.4421C284.789 22.4323 284.58 22.3877 284.443 22.4329C283.969 22.5946 283.51 22.5114 283.009 22.4683C282.131 22.398 281.231 22.4022 280.341 22.4066C279.912 22.4056 279.491 22.507 279.062 22.5197C278.769 22.528 278.467 22.4545 278.174 22.4288C278.028 22.4125 277.861 22.3686 277.735 22.4004C277.02 22.5646 276.268 22.5034 275.536 22.4901C273.945 22.4683 272.344 22.4598 270.765 22.3564C269.992 22.3016 269.249 22.3086 268.474 22.3287C267.102 22.3653 265.732 22.3201 264.361 22.2886C263.974 22.2816 263.599 22.1931 263.212 22.1521C262.962 22.1271 262.659 22.0808 262.449 22.1315C261.923 22.2718 261.379 22.2348 260.835 22.225C258.356 22.1802 255.866 22.1285 253.386 22.077C252.821 22.0668 252.267 22.0295 251.714 21.931C251.255 21.8546 250.73 21.9337 250.238 21.9521C249.976 21.961 249.724 22.0177 249.473 22.0132C247.684 21.9877 245.895 21.9486 244.116 21.9166C243.112 21.8984 242.107 21.8871 241.113 21.876C240.987 21.8737 240.841 21.8575 240.725 21.8895C240.01 22.0741 239.259 21.9788 238.526 21.9928C237.657 22.0112 236.787 22.0364 235.919 22.0139C235.522 22.0067 235.136 21.9044 234.635 21.8273C234.297 21.9915 233.774 21.9752 233.251 21.9794C232.906 21.98 232.569 22.0625 232.234 22.0632C231.543 22.0644 230.842 22.0858 230.163 22.0054C229.463 21.9179 228.804 21.8924 228.102 21.9751C227.242 22.0753 226.373 22.0665 225.517 21.9216C225.34 21.8912 225.141 21.8876 224.953 21.8978C224.586 21.9184 224.229 21.9801 223.863 21.9735C220.096 21.9192 216.319 21.8442 212.552 21.7899C212.144 21.7826 211.735 21.8365 211.326 21.8632C211.284 21.8692 211.242 21.8889 211.2 21.8813C210.313 21.7495 209.461 21.9794 208.582 21.9703C208.373 21.9665 208.163 22.0309 207.953 22.0475C207.764 22.0577 207.555 22.0744 207.388 22.0237C207.024 21.9082 206.678 21.9292 206.311 22.0043C206.132 22.0351 205.933 22.0383 205.745 22.0281C205.379 22.0011 205.025 21.9266 204.659 21.9132C203.613 21.8739 202.577 21.8484 201.531 21.8363C201.175 21.8299 200.807 21.8914 200.451 21.919C200.346 21.9239 200.231 21.9423 200.137 21.9201C199.282 21.7413 198.424 21.7326 197.573 21.8943C197.489 21.9064 197.384 21.925 197.311 21.9032C196.635 21.7139 195.951 21.8787 195.282 21.8734C195.009 21.8685 194.728 21.8021 194.456 21.7768C194.31 21.7605 194.153 21.7509 194.007 21.7551C193.577 21.7746 193.157 21.8419 192.728 21.8342C188.763 21.7763 184.797 21.7115 180.832 21.6468C180.811 21.6465 180.79 21.6393 180.769 21.6457C179.961 21.781 179.147 21.6164 178.331 21.6085C177.881 21.6072 177.421 21.5717 176.979 21.6999C176.8 21.7512 176.55 21.7262 176.33 21.7223C172.825 21.6727 169.309 21.6161 165.804 21.5665C165.647 21.5636 165.48 21.5402 165.354 21.5788C164.618 21.7562 163.845 21.6605 163.091 21.6742C162.589 21.6787 162.096 21.7175 161.594 21.7153C160.401 21.7074 159.208 21.6927 158.015 21.6644C157.241 21.6436 156.457 21.5681 155.683 21.5542C154.919 21.5404 154.165 21.5745 153.401 21.5811C152.794 21.5838 152.177 21.5658 151.57 21.5617C150.879 21.5561 150.189 21.5096 149.496 21.6401C149.097 21.7146 148.627 21.6653 148.198 21.6644C146.241 21.6359 144.274 21.5936 142.318 21.5651C142.046 21.5602 141.772 21.6302 141.489 21.6455C140.976 21.6771 140.452 21.7358 139.939 21.7265C138.568 21.7086 137.209 21.6568 135.838 21.6253C135.66 21.6221 135.493 21.6327 135.315 21.6363C135.189 21.6408 135.021 21.6787 134.927 21.6429C134.387 21.3948 133.883 21.4811 133.357 21.635C133.21 21.6801 133.012 21.6492 132.844 21.6462C131.62 21.6241 130.396 21.6293 129.183 21.5529C128.618 21.5155 128.163 21.807 127.539 21.6118C127.081 21.4673 126.473 21.5177 125.929 21.5147C125.5 21.5137 125.069 21.5809 124.65 21.6142C124.461 21.6312 124.262 21.6413 124.063 21.6377C120.684 21.5767 117.304 21.5157 113.935 21.4618C113.391 21.452 112.847 21.449 112.303 21.446C112.156 21.4433 111.968 21.4399 111.862 21.4925C111.313 21.7687 110.74 21.6561 110.187 21.5236C109.833 21.4355 109.551 21.4304 109.183 21.4918C108.616 21.5838 108.007 21.7295 107.447 21.4129C107.344 21.3565 107.155 21.3599 107.009 21.3505C106.507 21.3346 106.005 21.3187 105.502 21.3301C105.23 21.3388 104.946 21.3814 104.684 21.4311C104.064 21.5357 103.466 21.6407 102.875 21.3508C102.75 21.2873 102.541 21.2835 102.373 21.2805C101.662 21.2744 100.931 21.1591 100.237 21.3509C100.185 21.3636 100.101 21.3689 100.049 21.3543C98.9967 21.0697 97.8949 21.2269 96.8182 21.153C96.4315 21.1256 96.056 21.0507 95.6691 21.0301C95.0627 20.9987 94.456 20.981 93.8489 20.9837C93.4406 20.9899 93.0416 21.0576 92.6332 21.0707C92.1514 21.0893 91.6299 20.9913 91.2094 21.0927C90.6207 21.2387 90.1612 21.1828 89.5666 21.0699C88.6383 20.8965 87.6443 20.8785 86.672 20.8201C86.4212 20.802 86.1687 20.8724 85.9171 20.8951C85.7075 20.9117 85.487 20.9486 85.2778 20.9448C84.3674 20.9352 83.4465 20.9254 82.5366 20.8886C82.1496 20.8748 81.7743 20.7931 81.3983 20.7522C81.1894 20.728 80.9595 20.7103 80.7602 20.7339C79.4909 20.8949 78.2359 20.8382 76.9509 20.7129C76.324 20.6539 75.6365 20.4712 74.9938 20.7048C74.9201 20.7307 74.8046 20.7491 74.7422 20.7275C74.1494 20.5193 73.5592 20.7471 72.9734 20.7297C72.3667 20.7119 71.7493 20.7076 71.1428 20.6762C70.8187 20.6568 70.5058 20.5966 70.1926 20.5501C70.1091 20.5418 70.0259 20.513 69.9421 20.5115C69.1365 20.497 68.331 20.4757 67.525 20.4816C67.0958 20.4874 66.6757 20.5684 66.2461 20.5947C65.6592 20.6386 65.1385 20.493 64.6288 20.3203C64.3687 20.2339 64.0665 20.1603 63.7737 20.1482C62.7278 20.1089 61.6814 20.0969 60.6348 20.0916C60.3836 20.0939 60.121 20.1437 59.9 20.2146C59.5526 20.3241 59.2494 20.305 58.906 20.1967C58.6355 20.11 58.333 20.0501 58.0506 20.0382C56.8269 19.9957 55.6129 19.9874 54.3892 19.9449C54.0859 19.9326 53.7939 19.8729 53.5014 19.8403C53.2612 19.8156 53.0317 19.7706 52.7911 19.7662C51.8286 19.7421 50.8764 19.7317 49.9138 19.7143C49.6104 19.7089 49.3284 19.6765 49.0586 19.5491C48.8614 19.4569 48.5683 19.4585 48.3178 19.4199C47.942 19.3654 47.5555 19.3244 47.1796 19.2768C47.1378 19.2692 47.0859 19.2478 47.0544 19.2541C46.5699 19.4224 46.0513 19.1611 45.5572 19.2816C45.4521 19.3069 45.2432 19.2827 45.15 19.2265C44.9117 19.0928 44.7034 19.0346 44.388 19.1174C44.2197 19.1621 43.9587 19.1233 43.7608 19.0721C43.3962 18.9769 43.0513 18.9503 42.6831 19.0526C42.5568 19.0912 42.3469 19.1283 42.2534 19.0857C41.8274 18.9146 41.3551 18.9878 40.9162 18.9526C40.4144 18.9163 39.9227 18.9075 39.4654 18.7289C39.2783 18.6574 38.9954 18.6728 38.7654 18.6618C38.0127 18.6142 37.2365 18.7092 36.5079 18.4849C36.435 18.4631 36.32 18.4542 36.2568 18.4803C35.7618 18.6485 35.2297 18.5572 34.7163 18.5888C34.4438 18.6111 34.1707 18.6607 33.814 18.7087C33.4195 18.5313 32.8748 18.5556 32.331 18.5321C31.7244 18.5076 31.1165 18.5579 30.5336 18.3771C30.3983 18.3338 30.1886 18.3573 30.0207 18.3815C28.9712 18.5396 27.9247 18.5344 26.8824 18.2976C26.4445 18.2012 26.0064 18.1183 25.5683 18.0355C25.4222 18.0124 25.2653 18.0096 25.1187 18.0138C24.438 18.0356 23.7471 18.0435 23.0762 18.0995C21.787 18.2057 20.482 18.0255 19.1932 18.1044C19.0675 18.109 18.9107 18.0993 18.8174 18.05C18.2571 17.781 17.6697 17.8522 17.0715 17.9435C16.893 17.9744 16.6731 17.9772 16.5065 17.9334C15.8919 17.7724 15.2741 17.7885 14.6448 17.8589C14.54 17.8706 14.4243 17.9026 14.3303 17.8873C12.5661 17.6375 10.7745 17.7414 8.99579 17.7093C8.40988 17.6988 7.83258 17.7905 7.23817 17.6708C7.06092 17.6336 6.85129 17.6502 6.65226 17.6602C5.69928 17.6907 5.00307 17.4125 4.61543 16.8538C4.44186 16.6123 4.18201 16.5123 3.84843 16.4381C3.18139 16.2831 2.50401 16.121 1.83698 15.9659C0.971882 15.7664 0.508058 15.3698 0.382482 14.7886C0.251993 14.4797 0.12089 14.2049 0.105 13.9254C0.0984681 13.7073 0.207149 13.4845 0.273856 13.2677C0.306964 13.173 0.329609 13.078 0.373303 12.9766C0.438905 12.8212 0.432372 12.6031 0.590911 12.5174C0.939499 12.3398 1.35086 12.1633 1.77048 12.1096C2.74597 11.9909 3.74068 11.968 4.72626 11.87C5.65942 11.7778 6.59048 11.8015 7.52032 11.8932C7.90683 11.9342 8.3049 11.9141 8.69215 11.9143C9.40399 11.9067 10.1268 11.8721 10.8381 11.8917C11.3821 11.9083 11.8455 11.7464 12.2045 11.569C12.6798 11.3323 13.1416 11.2589 13.7066 11.2691C14.0205 11.2748 14.3549 11.3013 14.6197 11.1289C14.9692 10.9037 14.96 10.8286 14.5551 10.651C14.2332 10.509 13.8997 10.428 13.5231 10.4212C12.8953 10.4099 12.246 10.4322 11.6297 10.3666C11.1074 10.3095 10.5545 10.211 10.1077 10.0259C9.06909 9.58483 8.64157 8.91643 8.56177 8.11808C8.50845 7.59265 8.78908 7.12093 8.89221 6.62557C8.9263 6.47633 9.20116 6.32463 9.41226 6.22627C9.74977 6.08251 10.1286 5.96675 10.5074 5.85779C11.0335 5.70381 11.5559 5.7541 11.9594 6.01339C12.2594 6.20952 12.5936 6.2496 12.9703 6.24959C13.5984 6.24729 14.2253 6.30628 14.835 6.15381C15.0978 6.09044 15.4429 6.11029 15.7352 6.14962C16.8523 6.30599 17.8717 6.07236 18.8907 5.86597C19.5315 5.7345 20.1494 5.71159 20.8183 5.76452C21.7694 5.83617 22.6765 6.02962 23.6495 6.04718C24.1412 6.05605 24.6404 6.23533 25.1196 6.35977C25.8593 6.5502 26.6233 6.55036 27.3578 6.44782C28.1762 6.33317 28.9632 6.21795 29.764 6.50485C29.9096 6.55515 30.098 6.55174 30.2758 6.56176C31.3006 6.60749 32.3149 6.65984 33.34 6.69196C33.863 6.7082 34.3768 6.65617 34.8998 6.67242C35.2868 6.68621 35.6623 6.76109 36.0488 6.80212C36.2159 6.81876 36.4039 6.84258 36.5614 6.81137C36.8032 6.75443 37.0127 6.74459 37.2415 6.82364C37.3455 6.85957 37.4924 6.84178 37.6183 6.82362C38.2686 6.74681 38.9294 6.67018 39.5796 6.59336C39.6845 6.58163 39.8099 6.59071 39.893 6.62626C40.3296 6.7908 40.7077 6.72269 41.1184 6.58025C41.4238 6.47678 41.7616 6.31941 42.1456 6.49661C42.2079 6.52498 42.3334 6.52725 42.3967 6.50114C42.8811 6.3396 43.4239 6.41751 43.9272 6.36528C44.3047 6.32441 44.6421 6.18747 45.0098 6.11236C45.2934 6.05618 45.5978 6.00718 45.8908 6.01246C46.4244 6.02209 46.9672 6.09999 47.5007 6.11643C47.9924 6.1253 48.4959 6.06627 48.9876 6.07514C49.3224 6.08118 49.6666 6.14869 50.0008 6.18877C50.262 6.21392 50.5126 6.24568 50.7741 6.25721C51.4641 6.2969 52.1761 6.2825 52.8546 6.38329C53.6687 6.50695 54.4737 6.55553 55.2888 6.62472C55.8426 6.67558 56.3849 6.78072 56.9498 6.79772C58.0586 6.83135 59.1566 6.88521 60.2649 6.94607C60.589 6.96554 60.9017 7.03929 61.2259 7.05195C61.9579 7.08559 62.7101 7.16046 63.4334 7.09858C63.9785 7.05392 64.5024 7.02251 65.0467 7.0187C65.4862 7.01982 65.9253 7.04818 66.3053 6.87113C66.3792 6.83159 66.5155 6.82043 66.62 6.82912C67.518 6.94749 68.41 6.81374 69.3098 6.82997C70.0003 6.84242 70.7048 6.66442 71.3972 6.57474C71.7119 6.53274 72.0267 6.49074 72.3513 6.48297C72.812 6.47085 73.2718 6.50639 73.7221 6.49407C74.0676 6.48669 74.4034 6.43825 74.7388 6.41025C75.0846 6.38924 75.4305 6.36142 75.7759 6.36084C76.7804 6.37215 77.7847 6.39708 78.7786 6.42182C79.3227 6.43163 79.8451 6.48192 80.3878 6.56664C81.2541 6.69805 82.1437 6.70048 83.0355 6.58034C83.5076 6.51394 84.0096 6.53661 84.5011 6.5591C85.0135 6.58197 85.525 6.65931 86.0369 6.70941C86.5281 6.75232 87.0293 6.81586 87.5212 6.81792C87.9503 6.81885 88.3807 6.74488 88.8001 6.70476C89.1146 6.67638 89.44 6.62095 89.754 6.6198C91.0621 6.62978 92.3697 6.66699 93.6778 6.67696C93.9708 6.68225 94.2751 6.64006 94.569 6.59087C95.0623 6.51122 95.5649 6.49985 96.0441 6.62429C96.3046 6.69029 96.5343 6.72168 96.7973 6.64469C96.9341 6.60629 97.0914 6.58869 97.2379 6.59133C98.0124 6.59168 98.7973 6.59222 99.5713 6.6198C100.157 6.63718 100.772 6.7845 101.328 6.72641C102.072 6.64448 102.726 6.95597 103.44 6.85305C104.3 6.73235 105.137 6.77468 105.993 6.8991C106.713 7.00064 107.479 6.87824 108.187 7.07492C108.281 7.09704 108.396 7.07869 108.512 7.06715C108.962 7.03441 109.414 6.97444 109.853 6.97556C111.402 6.98987 112.95 7.02461 114.499 7.04574C114.604 7.04762 114.739 7.0637 114.823 7.03797C115.36 6.86375 115.935 6.93541 116.49 6.9318C117.662 6.91889 118.834 6.91279 120.017 6.89327C120.227 6.89023 120.437 6.82592 120.637 6.79546C120.972 6.74022 121.287 6.73226 121.492 6.97435C121.697 7.20963 122.042 7.21586 122.357 7.14662C123.093 6.98961 123.847 6.96915 124.61 6.98974C125.018 6.9971 125.416 6.99746 125.826 6.90269C126.131 6.82645 126.517 6.86067 126.863 6.87371C127.678 6.90886 128.517 6.83544 129.319 7.04744C129.517 7.09868 129.79 7.04912 130.02 7.03284C130.335 7.01127 130.66 6.94903 130.974 6.94788C131.676 6.94691 132.366 6.95256 133.067 6.98563C133.538 7.00774 133.996 7.10456 134.477 7.13367C135.094 7.17204 135.72 7.26508 136.341 7.09918C136.53 7.0481 136.771 7.05244 136.98 7.05622C140.663 7.12265 144.346 7.17547 148.029 7.26233C148.688 7.28103 149.347 7.28611 150.007 7.27077C150.729 7.25656 151.44 7.30343 152.162 7.30284C152.507 7.30226 152.843 7.25383 153.179 7.22582C153.221 7.21977 153.273 7.19347 153.305 7.20766C154.044 7.39809 154.792 7.12551 155.512 7.23386C156.556 7.38211 157.592 7.41441 158.649 7.41986C158.921 7.41795 159.194 7.35477 159.477 7.34625C159.927 7.33394 160.42 7.26791 160.816 7.3636C161.619 7.56197 162.394 7.50785 163.181 7.42668C163.453 7.39754 163.737 7.36178 164.009 7.35988C164.835 7.36798 165.662 7.3897 166.488 7.40461C167.032 7.41443 167.577 7.39019 168.097 7.55624C168.222 7.59936 168.4 7.60938 168.547 7.59159C169.365 7.50418 170.169 7.60042 170.974 7.63538C171.779 7.67034 172.585 7.67806 173.391 7.67898C173.663 7.67707 173.947 7.6277 174.219 7.60537C174.45 7.58229 174.691 7.55939 174.932 7.55692C175.978 7.56899 177.025 7.58786 178.071 7.62035C178.363 7.63245 178.666 7.69239 178.958 7.73172C179.104 7.74798 179.261 7.78486 179.407 7.7875C181.761 7.82997 184.115 7.87924 186.47 7.9149C186.742 7.9198 187.025 7.86362 187.298 7.8481C187.465 7.8375 187.643 7.82709 187.8 7.85035C188.76 7.99708 189.702 8.00045 190.688 7.89563C191.443 7.8207 192.247 7.89652 193.021 7.94453C193.251 7.95549 193.459 8.02055 193.711 7.96379C193.879 7.92596 194.099 7.92311 194.277 7.96037C195.09 8.11808 195.886 8.112 196.714 8.00434C197.344 7.92034 198.014 7.89838 198.663 7.91008C199.835 7.93122 201.016 8.00701 202.188 8.04177C203.516 8.07936 204.845 8.10333 206.174 8.10687C206.708 8.10969 207.243 8.0308 207.788 7.99295C207.914 7.98159 208.039 7.99067 208.164 8.00655C208.76 8.06497 209.365 8.14401 209.961 8.18881C210.714 8.24325 211.477 8.28427 212.241 8.30486C212.586 8.31789 212.932 8.25603 213.278 8.26226C215.088 8.28129 216.898 8.30713 218.698 8.33279C219.744 8.35166 220.791 8.35692 221.826 8.41646C222.464 8.45521 223.08 8.48677 223.73 8.45081C224.589 8.39819 225.467 8.48895 226.346 8.49118C227.33 8.4953 228.334 8.54066 229.278 8.42147C230.473 8.27276 231.665 8.36236 232.847 8.37688C233.35 8.38594 233.85 8.4699 234.364 8.40425C235.141 8.30246 235.848 8.55361 236.6 8.62167C236.987 8.65589 237.384 8.68349 237.771 8.68366C239.184 8.68872 240.597 8.68696 242.021 8.6922C242.649 8.68991 243.265 8.72147 243.896 8.59661C244.221 8.52756 244.639 8.56235 244.983 8.63667C245.693 8.78568 246.383 8.81176 247.097 8.6816C247.223 8.65663 247.37 8.61161 247.474 8.64073C248.099 8.80867 248.709 8.63577 249.327 8.66052C249.933 8.68509 250.551 8.68941 251.157 8.70717C251.356 8.71075 251.576 8.7011 251.732 8.7584C252.554 9.03206 253.423 8.99325 254.302 8.98868C255.778 8.98805 257.265 8.98081 258.74 9.00061C259.096 9.00703 259.461 9.08172 259.804 9.16966C260.211 9.27235 260.598 9.29295 261.007 9.20498C261.291 9.14199 261.595 9.10661 261.889 9.07104C262.204 9.02904 262.519 8.97342 262.843 8.95884C263.137 8.9437 263.44 8.9696 263.743 8.98869C264.13 9.0161 264.536 9.11879 264.893 9.07073C265.522 8.99354 266.149 9.07295 266.788 9.00276C267.638 8.9091 268.526 8.97962 269.395 8.98847C270.2 9.00301 271.006 9.02435 271.811 9.05931C272.125 9.07178 272.437 9.15234 272.761 9.17862C273.012 9.19677 273.294 9.2291 273.515 9.17859C273.809 9.11578 274.039 9.14717 274.321 9.19312C274.686 9.2542 275.104 9.25494 275.472 9.20707C276.468 9.0752 277.452 9.09976 278.433 9.25368C278.6 9.27712 278.787 9.32137 278.934 9.29678C279.795 9.15565 280.643 9.15732 281.487 9.36326C281.601 9.39257 281.769 9.41602 281.874 9.38386C282.369 9.22251 282.743 9.36548 283.095 9.58979C283.347 9.51942 283.568 9.43486 283.82 9.39173C284.009 9.35427 284.229 9.35824 284.438 9.3552C284.522 9.35671 284.616 9.39246 284.689 9.38697C286.419 9.21384 288.164 9.38835 289.902 9.37201C291.011 9.35798 292.12 9.36436 293.23 9.37756C294.255 9.39606 295.269 9.44841 296.295 9.4601C296.954 9.46518 297.614 9.43621 298.274 9.37321C298.862 9.31568 299.488 9.40191 300.095 9.38562C300.849 9.36516 301.604 9.30385 302.358 9.26297C302.505 9.2588 302.662 9.25482 302.787 9.29113C303.495 9.47419 304.238 9.50121 304.982 9.44652C306.145 9.36534 307.285 9.42676 308.434 9.54966C308.664 9.57424 308.894 9.56477 309.135 9.56911C309.281 9.57176 309.46 9.54773 309.585 9.58404C309.918 9.67179 310.241 9.75935 310.578 9.6292C310.599 9.62277 310.62 9.62315 310.641 9.62353C312.383 9.9206 314.156 9.68694 315.902 9.83422C316.267 9.86125 316.622 9.92895 316.977 9.96941C317.103 9.98529 317.249 10.0084 317.364 9.9832C318.394 9.74295 319.483 9.72854 320.562 9.6867C320.886 9.67212 321.21 9.73925 321.534 9.7451C323.082 9.77984 324.631 9.81459 326.169 9.8219C326.525 9.82151 326.883 9.72579 327.239 9.69136C327.438 9.67451 327.669 9.66505 327.856 9.7093C328.617 9.8933 329.369 9.99541 330.127 9.73664C330.222 9.70429 330.337 9.69275 330.442 9.69464C331.551 9.67379 332.673 9.56461 333.76 9.66595C335.066 9.78487 336.365 9.73337 337.672 9.77739C338.08 9.79156 338.479 9.71702 338.888 9.69034C339.58 9.64832 340.271 9.61993 340.948 9.78199C341.407 9.89243 341.867 9.89393 342.34 9.76624C342.667 9.67677 343.054 9.67013 343.42 9.65631C343.829 9.64324 344.237 9.67103 344.636 9.55564C344.878 9.49189 345.192 9.51117 345.474 9.51627C347.243 9.54136 349 9.57306 350.769 9.59815C350.832 9.59928 350.905 9.58699 350.968 9.60174C351.624 9.77704 352.286 9.63913 352.945 9.65783C353.625 9.67691 354.294 9.67537 354.975 9.67402C355.142 9.67023 355.31 9.6324 355.478 9.60818C355.583 9.58964 355.72 9.53081 355.783 9.55918C356.469 9.80996 357.134 9.51544 357.813 9.56175C358.482 9.60107 359.164 9.53163 359.833 9.55732C360.576 9.59115 361.308 9.6316 362.042 9.54948C362.398 9.50824 362.766 9.42633 363.122 9.43274C364.576 9.4726 366.021 9.43055 367.464 9.49064C368.259 9.52541 369.055 9.51933 369.862 9.4113C370.607 9.30895 371.422 9.39857 372.207 9.38549C372.616 9.37923 373.014 9.33193 373.423 9.29844C373.57 9.28746 373.727 9.26987 373.874 9.27251C375.067 9.25998 376.27 9.26126 377.464 9.23511C377.935 9.22317 378.408 9.13634 378.879 9.12441C379.507 9.1085 380.145 9.13363 380.773 9.13814C381.945 9.15247 383.128 9.16699 384.3 9.17451C384.446 9.17715 384.624 9.18717 384.75 9.15539C385.56 8.9248 386.417 8.99475 387.265 8.99641C387.652 8.99659 388.03 8.93529 388.418 8.90823C388.627 8.89158 388.847 8.87512 389.067 8.87227C389.653 8.86922 390.239 8.8866 390.836 8.88374C391.014 8.88695 391.202 8.89715 391.349 8.85894C392.032 8.70779 392.702 8.68583 393.39 8.8617C393.432 8.86926 393.473 8.87002 393.515 8.87077C394.374 8.82497 395.234 8.76555 396.103 8.74036C396.689 8.72369 397.275 8.76831 397.86 8.77887C398.091 8.78303 398.362 8.80155 398.562 8.73705C398.952 8.61466 399.36 8.61521 399.768 8.62257C400.836 8.6282 401.903 8.64065 402.97 8.64628C403.169 8.64987 403.368 8.63983 403.547 8.609C404.439 8.45481 405.342 8.32125 406.274 8.27676C406.766 8.25159 407.237 8.23965 407.728 8.30981C408.062 8.3567 408.44 8.26817 408.807 8.24073C408.954 8.22975 409.101 8.19835 409.258 8.19437C410.148 8.16275 411.029 8.10371 411.918 8.11975C412.713 8.13409 413.427 8.01075 414.111 7.79832C414.543 7.66307 414.94 7.69066 415.368 7.7733C415.628 7.82568 415.921 7.83778 416.193 7.82907C416.602 7.816 417 7.76189 417.409 7.74882C417.87 7.7367 418.299 7.72401 418.741 7.60257C419.046 7.51952 419.464 7.56793 419.819 7.58796C420.227 7.60894 420.623 7.69782 421.031 7.71199C422.234 7.74731 422.493 7.89502 422.835 8.65724C423.036 9.1036 423.07 9.54694 423.083 9.99672C423.097 10.3852 422.892 10.7153 422.604 11.0302C422.252 11.4053 421.777 11.5806 421.045 11.5742C420.166 11.5652 419.285 11.6719 418.405 11.7309C418.342 11.7366 418.268 11.7829 418.226 11.7686C417.486 11.5918 416.79 11.8721 416.058 11.8385C415.326 11.8116 414.584 11.7778 413.841 11.7712C413.234 11.7671 412.617 11.7355 412.059 11.9298C411.932 11.9752 411.755 11.9447 411.618 11.9831C411.502 12.0151 411.333 12.0938 411.322 12.1549C411.31 12.2228 411.434 12.3272 411.538 12.3835C411.672 12.4541 411.839 12.5048 412.006 12.5282C412.548 12.6197 413.112 12.6844 413.655 12.7827C414.072 12.8584 414.521 12.9346 414.853 13.104C415.102 13.2243 415.212 13.4851 415.334 13.6917C415.517 14.0083 415.731 14.3255 415.809 14.6606C415.885 15.0366 415.816 15.3964 415.81 15.7504ZM99.7746 13.9183C99.2287 14.0106 98.7564 14.0838 98.2837 14.1775C97.853 14.2651 97.4344 14.2643 97.018 14.141C96.5495 14.0032 96.07 13.8924 95.6051 14.136C95.5628 14.1625 95.4788 14.1746 95.4162 14.1666C94.8322 14.0471 94.2537 14.207 93.6789 14.1625C93.3967 14.137 93.114 14.1455 92.831 14.1677C92.5062 14.1891 92.2023 14.2108 91.8682 14.1639C91.5654 14.1244 91.1883 14.138 90.9354 14.2356C90.5244 14.3917 90.1482 14.3577 89.7412 14.2958C89.5741 14.2724 89.3867 14.2213 89.2397 14.2459C88.3366 14.4135 87.4176 14.3016 86.5184 14.2513C86.1943 14.2319 85.922 14.2406 85.6683 14.379C85.4887 14.4711 85.2881 14.5697 85.4005 14.7216C85.4821 14.8388 85.6679 14.9852 85.835 15.0019C86.2843 15.044 86.7959 15.1145 87.185 15.0126C87.9001 14.8211 88.5369 14.9144 89.1081 15.1563C89.752 15.4335 90.3489 15.417 91.0114 15.2451C91.2217 15.1876 91.473 15.1853 91.7136 15.1896C92.7285 15.2079 93.754 15.2196 94.7684 15.2652C95.2808 15.288 95.7921 15.3722 96.3148 15.4089C96.5447 15.4266 96.7753 15.4104 97.0056 15.4077C97.2568 15.4054 97.5298 15.3559 97.7594 15.3941C98.834 15.5837 99.8904 15.6232 100.971 15.4724C101.129 15.448 101.306 15.4717 101.473 15.4883C101.755 15.5138 102.026 15.5664 102.298 15.5781C102.8 15.6008 103.303 15.603 103.805 15.6121C104.454 15.617 105.102 15.6695 105.743 15.5244C105.995 15.4677 106.33 15.4669 106.58 15.5327C107.382 15.7447 108.21 15.6779 109.036 15.7269C109.318 15.7456 109.589 15.805 109.861 15.8303C110.185 15.8566 110.519 15.9103 110.823 15.8681C111.925 15.7177 113.003 15.7167 114.098 15.9272C114.234 15.9501 114.391 15.9393 114.537 15.9351C114.883 15.9141 115.219 15.8657 115.554 15.8581C116.098 15.8475 116.642 15.8709 117.187 15.8603C117.909 15.8461 118.61 15.8587 119.298 16.0346C119.464 16.0785 119.695 16.0826 119.873 16.045C120.672 15.8687 121.435 15.9369 122.238 16.0808C122.666 16.1566 123.148 16.1313 123.598 16.119C124.048 16.1067 124.5 16.0263 124.95 16.0276C126.456 16.0411 127.953 16.0681 129.459 16.1021C129.773 16.1078 130.096 16.1817 130.409 16.2214C130.869 16.2774 131.327 16.4082 131.811 16.2807C132.084 16.2108 132.389 16.1618 132.682 16.167C133.791 16.1666 134.9 16.1798 136.02 16.2068C136.689 16.2257 137.371 16.1563 138.016 16.3518C138.089 16.3736 138.183 16.3548 138.267 16.3495C138.791 16.3249 139.315 16.2799 139.849 16.2827C140.937 16.2887 142.025 16.322 143.113 16.3484C143.26 16.351 143.416 16.3811 143.562 16.3974C143.907 16.4376 144.241 16.505 144.586 16.518C146.5 16.5662 148.415 16.5803 150.329 16.642C151.616 16.6857 152.891 16.7836 154.167 16.8475C154.533 16.8677 154.91 16.8609 155.276 16.8471C155.81 16.8295 156.356 16.7644 156.89 16.7604C157.696 16.7545 158.501 16.7895 159.307 16.7972C159.568 16.8019 159.82 16.7724 160.082 16.7499C160.375 16.7279 160.67 16.6651 160.973 16.6706C162.7 16.6881 164.416 16.7122 166.142 16.7434C166.812 16.7555 167.493 16.7133 168.127 16.929C168.252 16.9722 168.43 16.9686 168.577 16.9712C169.298 16.9842 170.01 16.9971 170.732 17.0033C170.91 17.0065 171.078 16.9891 171.245 16.9717C171.654 16.9382 172.053 16.8773 172.461 16.8778C173.686 16.8863 174.899 16.915 176.123 16.9507C176.395 16.9556 176.676 17.0356 176.948 17.0473C177.659 17.0806 178.37 17.1138 179.082 17.113C179.511 17.114 179.931 17.0262 180.361 17.0203C181.208 17.0152 182.056 17.0441 182.914 17.0595C183.039 17.0618 183.186 17.0508 183.3 17.0802C183.895 17.2135 184.525 17.075 185.119 17.2424C185.306 17.2934 185.57 17.196 185.811 17.1799C186.104 17.1648 186.408 17.1566 186.7 17.1755C187.066 17.2026 187.421 17.2771 187.787 17.2973C188.592 17.3323 189.397 17.3536 190.203 17.3681C190.485 17.3732 190.799 17.3993 191.041 17.3288C191.525 17.1808 192.017 17.1829 192.508 17.2326C193.26 17.3143 193.993 17.3071 194.747 17.2866C195.48 17.2658 196.233 17.3066 196.965 17.3198C198.357 17.3449 199.759 17.343 201.15 17.4021C201.892 17.436 202.602 17.5305 203.378 17.4491C204.333 17.3506 205.336 17.4027 206.309 17.4611C207.281 17.5195 208.235 17.421 209.207 17.4862C210.64 17.5801 212.084 17.5585 213.518 17.5844C213.706 17.5878 213.905 17.5573 214.094 17.5471C214.806 17.5123 215.519 17.4502 216.231 17.4494C217.079 17.4511 217.925 17.5276 218.773 17.5225C219.349 17.5193 219.926 17.4207 220.503 17.3698C220.649 17.3588 220.817 17.3346 220.942 17.3709C221.849 17.5984 222.792 17.5133 223.723 17.5165C224.037 17.5221 224.364 17.385 224.678 17.4111C225.744 17.4984 226.775 17.2037 227.84 17.3183C228.091 17.3432 228.342 17.3614 228.593 17.3795C228.739 17.389 228.886 17.3916 229.032 17.3874C229.378 17.3732 229.714 17.3248 230.059 17.3242C231.734 17.3204 233.408 17.3233 235.083 17.3195C235.187 17.3214 235.303 17.3167 235.408 17.2981C236.353 17.1176 237.284 17.1617 238.233 17.3286C238.452 17.3667 238.704 17.3439 238.934 17.3277C239.238 17.3127 239.532 17.2567 239.825 17.2552C240.547 17.2478 241.259 17.2674 241.981 17.2668C242.19 17.2638 242.411 17.2337 242.62 17.2103C243.092 17.1643 243.554 17.0705 244.025 17.0858C245.437 17.1317 246.849 17.198 248.263 17.1281C248.672 17.1083 249.07 17.0678 249.479 17.0479C249.646 17.0441 249.824 17.0473 249.98 17.091C250.46 17.2154 250.94 17.2514 251.454 17.2129C252.418 17.1486 253.383 17.023 254.366 17.0611C254.513 17.0706 254.66 17.0256 254.807 17.0146C255.425 16.9645 256.032 16.9414 256.659 17.0208C257.254 17.0996 257.872 17.0767 258.489 17.0947C258.552 17.0958 258.605 17.0559 258.668 17.0502C258.857 17.0264 259.046 16.9889 259.245 16.9925C260.27 16.9906 261.285 17.0021 262.283 16.8361C262.377 16.8174 262.513 16.8199 262.607 16.8488C263.096 17.0075 263.567 17.0092 264.051 16.868C264.198 16.823 264.397 16.847 264.564 16.8501C265.715 16.8572 266.877 16.8645 268.028 16.8853C268.624 16.896 269.191 16.7905 269.817 16.9039C270.944 17.1014 272.028 16.7463 273.138 16.7118C273.159 16.7122 273.191 16.706 273.201 16.6994C273.254 16.6594 273.329 16.6131 273.329 16.5654C273.33 16.5246 273.258 16.4484 273.196 16.4404C273.008 16.4098 272.809 16.3858 272.621 16.3824C271.815 16.3747 271.009 16.3805 270.204 16.366C267.442 16.3094 264.669 16.2594 261.907 16.1891C261.52 16.1821 261.145 16.1004 260.758 16.0594C260.591 16.0428 260.413 16.0328 260.246 16.0365C259.774 16.0621 259.303 16.1081 258.831 16.1268C258.14 16.1552 257.44 16.0609 256.767 16.2394C256.62 16.2776 256.391 16.2122 256.203 16.1952C256.098 16.1865 255.974 16.1298 255.9 16.1489C255.469 16.2841 255.061 16.2359 254.645 16.099C254.541 16.0631 254.374 16.0532 254.258 16.0784C253.575 16.2568 252.906 16.1834 252.229 16.035C252.093 16.0053 251.926 16.0159 251.769 16.013C251.057 16.007 250.345 16.0486 249.632 16.0971C248.647 16.1679 247.633 16.0951 246.629 16.077C246.524 16.0751 246.42 16.046 246.315 16.0305C246.023 15.9843 245.731 15.9314 245.428 15.8919C244.979 15.8361 244.54 15.7873 244.091 15.7383C243.987 15.7296 243.872 15.7207 243.767 15.7257C243.181 15.7491 242.593 15.8067 241.997 15.8027C240.469 15.8024 238.941 15.7885 237.424 15.7611C233.218 15.6852 229.012 15.6025 224.806 15.5267C224.513 15.5214 224.219 15.591 223.915 15.6059C223.664 15.615 223.412 15.6105 223.162 15.5924C222.817 15.5657 222.483 15.478 222.148 15.4855C221.593 15.496 221.037 15.5881 220.482 15.6053C219.77 15.6333 219.048 15.6339 218.336 15.6415C216.682 15.6458 215.029 15.6364 213.375 15.6474C212.485 15.6518 211.595 15.6766 210.705 15.6946C210.579 15.6991 210.453 15.7241 210.327 15.7423C210.034 15.7778 209.739 15.8406 209.436 15.8352C207.521 15.8074 205.597 15.7455 203.682 15.7246C202.865 15.7166 202.094 15.5665 201.299 15.5317C199.688 15.4618 198.077 15.4464 196.466 15.4173C195.848 15.4062 195.243 15.3271 194.702 15.1267C194.224 14.9409 193.753 14.9529 193.259 15.0257C192.987 15.0685 192.703 15.1042 192.431 15.0993C191.521 15.0965 190.6 15.0799 189.69 15.0499C189.345 15.0368 189.012 14.9423 188.677 14.9226C188.144 14.8858 187.6 14.8623 187.056 14.8729C186.606 14.8852 186.165 14.959 185.714 14.985C185.389 15.0063 185.065 14.9733 184.741 14.9878C183.411 15.0388 182.092 15.0082 180.765 14.8957C180.316 14.8603 179.855 14.8929 179.404 14.912C179.017 14.9254 178.607 15.0202 178.242 14.966C177.281 14.826 176.328 14.8701 175.376 14.8666C174.329 14.8613 173.283 14.8561 172.246 14.9055C171.544 14.9337 170.863 14.9827 170.163 14.8747C169.955 14.8437 169.724 14.86 169.515 14.8698C169.033 14.8748 168.562 14.9003 168.08 14.8984C167.599 14.8966 167.124 15.0855 166.625 14.9199C166.563 14.8983 166.457 14.9441 166.373 14.9494C166.08 14.9782 165.776 15.0135 165.482 15.0219C164.959 15.026 164.406 14.9343 163.923 15.021C163.072 15.1691 162.269 15.0592 161.432 14.9897C160.617 14.9205 159.779 14.9939 158.977 14.7887C158.779 14.7375 158.496 14.7664 158.275 14.8101C157.498 14.9596 156.703 14.9316 155.951 14.8227C155.388 14.7376 154.844 14.6937 154.29 14.6701C153.338 14.6325 152.376 14.5879 151.424 14.5367C150.954 14.5078 150.473 14.465 150.003 14.4225C148.78 14.3187 147.51 14.5478 146.334 14.1656C146.313 14.1584 146.292 14.158 146.272 14.1577C145.832 14.177 145.391 14.2167 144.952 14.2156C144.282 14.2171 143.569 14.2792 142.943 14.1657C142.14 14.0218 141.355 14.0145 140.549 13.9931C138.133 13.9427 135.716 13.906 133.299 13.8692C133.037 13.8644 132.734 13.8249 132.524 13.8961C132.029 14.071 131.516 14.0482 131.003 14.0457C129.737 14.0433 128.47 14.0749 127.216 13.991C126.181 13.9247 125.187 13.9135 124.179 14.0657C123.822 14.1205 123.393 14.0992 123.039 14.0247C122.518 13.9199 122.016 13.8972 121.492 13.9286C121.272 13.9451 121.062 13.9617 120.842 13.9782C118.925 14.0867 116.972 13.8539 115.062 14.126C113.106 14.0362 111.147 14.1779 109.205 13.9181C109.142 13.9102 109.069 13.9089 109.016 13.9215C108.27 14.0784 107.508 13.9625 106.754 13.9965C106.44 14.0113 106.115 14.0531 105.81 14.1021C105.149 14.2196 104.467 14.2958 103.843 14.0666C103.365 13.8945 102.936 13.8936 102.483 14.0217C102.157 14.1179 101.832 14.1598 101.467 14.0987C101.321 14.0756 101.154 14.0522 101.017 14.0769C100.524 14.1362 100.096 14.0944 99.7746 13.9183ZM367.501 14.9948C367.501 14.9744 367.512 14.9541 367.513 14.9337C367.837 14.9395 368.171 14.966 368.486 14.9444C368.695 14.9346 368.896 14.8497 369.095 14.8192C369.913 14.7046 370.722 14.5557 371.59 14.5986C372.5 14.6422 373.421 14.6316 374.331 14.6344C374.593 14.6323 374.845 14.6096 375.107 14.5871C375.379 14.5648 375.663 14.529 375.935 14.5135C376.836 14.4684 377.766 14.5465 378.649 14.3581C378.806 14.3269 379.024 14.4057 379.213 14.4159C379.662 14.4309 380.132 14.487 380.562 14.4403C381.454 14.3406 382.326 14.1588 383.246 14.2094C383.403 14.2191 383.56 14.2287 383.706 14.2109C383.885 14.1869 384.158 14.1442 384.19 14.0698C384.245 13.9414 384.217 13.7502 384.093 13.639C383.713 13.2847 383.146 13.3699 382.601 13.4145C382.213 13.4484 381.835 13.5029 381.448 13.5095C380.82 13.5118 380.182 13.4526 379.554 13.4685C378.476 13.5036 377.389 13.4158 376.328 13.6147C376.181 13.6461 375.983 13.6084 375.816 13.5782C375.159 13.4437 374.5 13.391 373.838 13.5493C373.649 13.5936 373.408 13.5893 373.199 13.5855C372.498 13.5796 371.807 13.5672 371.106 13.5614C370.897 13.5576 370.677 13.5945 370.467 13.6043C370.289 13.6147 370.1 13.6249 369.912 13.6011C369.442 13.545 368.974 13.4139 368.513 13.426C367.33 13.466 366.156 13.5742 364.971 13.655C364.238 13.7031 363.515 13.7241 362.791 13.8473C361.972 13.9823 361.124 13.9943 360.277 13.9654C360.11 13.9624 359.941 14.0138 359.773 14.038C359.375 14.0921 358.975 14.1735 358.567 14.1798C357.499 14.1877 356.433 14.1549 355.365 14.1356C355.083 14.1305 354.78 14.1046 354.517 14.1544C354.065 14.2484 353.657 14.2887 353.199 14.1442C352.897 14.0502 352.706 14.1762 352.713 14.3943C352.72 14.5919 352.906 14.6838 353.179 14.6751C354.058 14.6433 354.913 14.8222 355.804 14.7702C356.883 14.7079 357.981 14.7686 359.069 14.7814C360.157 14.801 361.245 14.8343 362.333 14.8607C362.521 14.8641 362.731 14.8679 362.909 14.8234C363.908 14.5962 364.931 14.7373 365.945 14.7896C366.489 14.8199 367 14.9244 367.501 14.9948ZM81.1399 14.7673C81.1407 14.7265 81.1519 14.6858 81.1526 14.6449C80.9761 14.5668 80.8099 14.4957 80.5648 14.7365C80.8157 14.7547 80.9725 14.7643 81.1399 14.7673Z" fill="black"/>
</svg>
