<svg width="28" height="152" viewBox="0 0 28 152" fill="none" xmlns="http://www.w3.org/2000/svg">
<g clip-path="url(#clip0)">
<path d="M20.6266 131.981C20.2983 131.981 19.9898 131.981 19.6018 131.981C19.6714 131.761 19.6913 131.565 19.761 131.528C20.6565 131.013 20.8256 130.094 20.7759 128.978C20.6465 126.281 20.5271 123.584 20.4575 120.887C20.3679 117.246 20.4376 113.593 20.2187 109.964C19.95 105.416 19.751 100.868 19.7908 96.3076C19.8207 92.5441 19.8008 88.7805 19.8008 84.9067C19.4127 84.9067 19.0246 84.9067 18.7261 84.9067C19.0943 84.3305 19.6714 83.8156 19.7709 83.1782C19.8903 82.4549 19.5122 81.6335 19.4724 80.8367C19.4326 79.905 19.552 78.9733 19.5719 78.0294C19.6714 74.3884 19.7709 70.7352 19.8605 67.0943C20.0097 61.1364 20.1988 55.1662 20.2983 49.2083C20.3779 44.2802 20.2485 39.3398 20.3679 34.4117C20.4674 30.3539 20.7958 26.3084 20.9948 22.2507C21.0644 20.7183 21.2634 19.1369 21.0246 17.6658C20.8356 16.5012 20.2784 15.1527 19.5321 14.4417C17.6714 12.6763 17.5023 12.3208 18.7162 9.84451C18.8256 9.62385 18.9251 9.41544 19.154 8.92508C17.1142 8.05469 15.2833 6.66941 13.1142 6.82878C10.6067 7.01267 8.10922 7.35592 5.61171 7.73595C3.46245 8.09146 1.75101 7.18429 0.407726 5.19833C-0.577348 3.7395 0.328124 1.31221 2.07937 1.00573C3.88036 0.699254 5.73111 0.699254 7.55201 0.576664C7.95997 0.539887 8.37788 0.527628 8.77589 0.478592C9.2137 0.429555 9.87041 -0.477615 9.93011 0.956695C9.93011 1.01799 10.3878 1.11606 10.6266 1.1038C13.7809 0.858622 16.9351 0.601182 20.0893 0.343742C21.363 0.23341 22.6366 -0.0362887 23.9102 0.000488465C24.8953 0.0250066 25.4824 0.88314 25.4724 2.14582C25.4724 4.59763 25.3132 7.04944 25.4127 9.48899C25.5122 12.0634 25.8505 14.6133 26.0694 17.1754C26.7261 24.8864 27.0147 32.6218 26.8754 40.3818C26.7659 46.4991 26.9152 52.6163 27.0744 58.7336C27.2037 63.7966 27.0943 68.8473 27.1639 73.9103C27.2336 78.5442 27.2833 83.1782 27.4227 87.7998C27.5023 90.7175 27.8107 93.6351 27.8605 96.5528C27.9401 100.917 27.8605 105.293 27.8704 109.67C27.8804 113.262 27.95 116.854 27.9202 120.446C27.9003 123.339 27.751 126.22 27.7013 129.113C27.6814 130.179 27.8207 131.246 27.8107 132.312C27.7908 135.144 27.7013 137.976 27.6814 140.82C27.6714 141.776 27.7212 142.757 27.8704 143.689C28.1888 145.675 27.9401 147.268 26.2883 148.2C26.0694 148.323 25.96 148.752 25.8008 149.046C25.3033 149.941 24.7659 150.456 23.7411 150.26C22.9749 150.113 22.1391 150.566 21.3331 150.75C20.0893 151.032 18.8455 151.424 17.5918 151.596C15.8505 151.829 14.0893 151.988 12.3381 152.013C11.2037 152.025 10.0694 151.792 8.95499 151.522C7.84056 151.265 6.75599 150.775 5.64156 150.48C3.86046 150.002 3.46245 148.543 4.62663 146.68C4.69628 146.57 4.79579 146.41 4.78584 146.3C4.55698 144.621 5.4525 143.91 6.46743 143.297C7.4525 142.708 8.38783 142.549 9.50225 143.039C12.5371 144.363 15.6615 143.517 18.746 143.297C20.0197 143.211 21.144 141.176 21.0644 139.521C20.945 137.069 20.7858 134.642 20.6266 131.981Z" fill="black"/>
</g>
<defs>
<clipPath id="clip0">
<rect width="28" height="152" fill="white"/>
</clipPath>
</defs>
</svg>
