<svg width="423" height="106" viewBox="0 0 423 106" fill="none" xmlns="http://www.w3.org/2000/svg">
<path d="M349.239 95.5822C351.475 96.0478 353.704 96.521 355.939 96.9637C357.643 97.2996 359.385 97.5057 361.058 97.9484C361.803 98.1469 362.434 98.7957 363.111 99.246C363.043 99.4521 362.967 99.6582 362.898 99.8643C361.369 99.8643 359.833 99.9788 358.32 99.8414C355.118 99.5513 351.924 99.185 348.738 98.7575C346.121 98.4064 343.49 98.0476 340.92 97.4675C337.665 96.7271 334.547 97.3988 331.352 97.8644C324.888 98.8109 318.401 99.6353 311.922 100.429C305.206 101.254 298.483 101.971 291.768 102.757C286.452 103.383 281.152 104.169 275.82 104.643C272.261 104.956 268.664 104.795 265.082 104.948C260.435 105.146 255.796 105.459 251.157 105.704C250.404 105.742 249.644 105.658 248.883 105.688C246.587 105.788 244.282 106.078 241.993 105.994C237.833 105.841 233.681 105.436 229.521 105.223C227.985 105.146 226.433 105.391 224.889 105.368C220.539 105.322 216.204 106.032 211.832 104.872C209.611 104.284 207.109 104.742 204.728 104.734C202.211 104.727 199.679 104.849 197.169 104.696C195.101 104.566 193.055 104.085 190.986 103.818C189.442 103.62 187.876 103.521 186.324 103.36C184.955 103.215 183.586 103.032 182.225 102.856C181.974 102.826 181.678 102.658 181.495 102.75C178.757 104.047 175.966 102.994 173.213 102.925C166.931 102.772 160.657 102.566 154.383 102.238C147.075 101.864 139.781 101.376 132.481 100.879C127.522 100.544 122.564 100.086 117.613 99.704C113.901 99.4139 110.183 98.8491 106.487 98.9636C101.825 99.101 97.3833 97.7957 92.8127 97.4446C87.2078 97.0172 81.504 97.0019 76.0436 95.8341C70.1953 94.5822 64.0352 94.8418 58.4531 92.1778C57.0462 91.5061 55.2514 91.6969 53.7304 91.2084C48.2472 89.4605 42.8096 87.5751 37.3415 85.7813C35.1285 85.0562 32.9154 84.3005 30.6491 83.8044C27.3257 83.0716 23.9338 82.6747 20.6104 81.9267C17.1425 81.1481 13.6518 80.3313 10.3132 79.133C8.29789 78.4078 6.36621 77.1407 4.71591 75.7363C2.51806 73.8585 2.52566 70.8893 1.84881 68.3017C1.27843 66.1034 0.746082 63.8898 0.297384 61.6609C-0.303414 58.6993 -0.0752628 56.0659 1.86402 53.4173C5.11137 48.9596 9.61356 46.2575 14.0397 43.3264C15.9638 42.0517 17.4467 40.1434 19.2567 38.6779C21.7512 36.6627 24.2609 34.6476 26.953 32.9225C29.9266 31.0143 33.0447 29.3045 36.2236 27.7626C39.0983 26.3658 42.1555 25.3506 45.0987 24.0911C49.6237 22.1523 54.2704 20.6944 59.13 19.8624C65.214 18.8167 71.2904 17.6946 77.3593 16.5191C82.0516 15.6108 86.6906 14.443 91.3982 13.611C95.8623 12.8248 100.372 12.3057 104.874 11.7256C108.297 11.2905 111.719 10.8631 115.156 10.5806C120.001 10.1837 124.86 9.90894 129.712 9.62651C133.682 9.39752 137.652 9.1838 141.622 9.05404C146.611 8.88611 151.6 8.82504 156.589 8.68002C160.855 8.55789 165.114 8.40523 169.373 8.20677C175.807 7.90145 182.24 7.45873 188.674 7.22974C196.515 6.95495 204.363 6.83282 212.204 6.64963C218.608 6.49697 225.011 6.14585 231.407 6.26798C238.221 6.39774 245.043 6.87099 251.842 7.39003C260.831 8.07701 269.805 9.03114 278.794 9.74101C282.437 10.0311 286.11 9.90894 289.76 10.0845C298.369 10.4967 306.993 10.7715 315.572 11.4813C323.55 12.1454 331.482 13.3209 339.429 14.2521C340.669 14.3972 341.916 14.443 343.239 14.2903C342.669 14.0918 342.114 13.8247 341.528 13.7178C333.756 12.3439 325.991 10.8936 318.203 9.64941C310.477 8.41286 302.735 7.25264 294.97 6.32141C289.966 5.72603 284.901 5.6726 279.881 5.24515C275.197 4.84823 270.527 4.25285 265.843 3.81014C263.774 3.61168 261.683 3.54298 259.606 3.48192C254.207 3.33689 248.8 3.23003 243.4 3.10027C238.746 2.98577 234.084 2.81021 229.43 2.76441C223.155 2.71098 216.881 2.72625 210.607 2.77205C207.839 2.79494 205.071 3.00867 202.302 3.0621C198.933 3.12317 195.557 3.0392 192.188 3.14606C187.465 3.29109 182.75 3.61168 178.027 3.74907C175.267 3.8254 172.483 3.49718 169.738 3.70328C164.779 4.06966 159.836 4.74137 154.877 5.19935C152.307 5.43598 149.706 5.40544 147.143 5.66497C143.713 6.01609 140.306 6.55803 136.876 6.96258C135.941 7.06945 134.975 6.87862 134.04 6.97785C128.518 7.57323 122.997 8.19914 117.483 8.84794C112.297 9.45095 107.103 9.96237 101.946 10.7409C96.6685 11.5348 91.4362 12.6797 86.1659 13.527C82.4851 14.1224 78.7434 14.3514 75.0701 14.9696C71.1535 15.6337 67.237 16.4123 63.3964 17.4046C56.6203 19.1449 49.8594 20.9768 43.1594 22.9996C40.163 23.9079 37.3415 25.3887 34.4364 26.5871C31.0978 27.9611 27.6299 29.0755 24.451 30.7471C21.1884 32.4646 18.1996 34.7087 15.1196 36.7543C13.8115 37.6245 12.6252 38.7008 11.2562 39.4259C10.625 39.7617 9.6744 39.4717 8.86826 39.4717C8.40436 39.4717 7.89482 39.6015 7.48415 39.4488C6.54112 39.0977 5.40797 38.8229 4.79196 38.1206C3.72726 36.9146 4.47255 35.4796 6.08482 35.2812C10.0851 34.785 13.7431 33.3805 17.2186 31.3196C19.4773 29.9762 21.9337 28.9381 24.3293 27.8237C28.2687 25.9917 32.1929 24.114 36.1932 22.4348C39.0907 21.2211 42.0871 20.2288 45.0683 19.2441C47.9962 18.2747 50.9698 17.4198 53.9281 16.5573C56.164 15.9085 58.3999 15.2139 60.6738 14.733C64.2406 13.9773 67.8377 13.3285 71.4349 12.7255C74.302 12.2446 77.1996 11.9622 80.0667 11.4966C82.7969 11.0539 85.489 10.3898 88.2269 10.0005C94.8052 9.06167 101.406 8.2602 107.985 7.35187C113.59 6.58093 119.172 5.68787 124.784 4.93983C127.096 4.62687 129.439 4.58108 131.758 4.35972C134.747 4.06966 137.728 3.65748 140.724 3.42085C145.919 3.00867 151.113 2.71098 156.307 2.3446C159.935 2.08507 163.562 1.77212 167.198 1.53549C168.703 1.43626 170.224 1.51259 171.738 1.42863C176.499 1.15384 181.252 0.74929 186.012 0.581363C188.56 0.489767 191.131 0.932483 193.678 0.840887C198.051 0.680593 202.417 0.161546 206.789 0.0394176C210.349 -0.0598119 213.923 0.207344 217.49 0.276042C218.859 0.306574 220.235 0.207344 221.612 0.222611C225.422 0.253143 229.232 0.329473 233.042 0.337106C235.339 0.344739 237.643 0.169179 239.94 0.214977C242.457 0.260776 244.967 0.512666 247.484 0.596629C249.986 0.680593 252.496 0.650061 254.998 0.711125C260.762 0.84852 266.519 0.978281 272.276 1.19964C273.623 1.25307 274.946 1.72632 276.292 1.84081C282.11 2.33696 287.943 2.67282 293.753 3.26056C298.613 3.74907 303.434 4.54291 308.286 5.13065C310.971 5.45887 313.693 5.49704 316.355 5.93212C319.2 6.39011 321.983 7.27554 324.827 7.74879C327.793 8.24493 330.812 8.3747 333.778 8.87084C337.018 9.41279 340.212 10.1914 343.429 10.8631C346.441 11.4966 349.468 12.0844 352.464 12.7713C355.445 13.4507 358.404 14.2369 361.377 14.962C362.533 15.2444 363.727 15.7864 364.86 15.6948C371.286 15.1757 377.051 17.8015 382.877 19.7098C388.558 21.5646 393.919 24.3888 399.425 26.7703C399.935 26.9917 400.619 27.3962 400.999 27.2283C402.893 26.3581 403.532 27.755 404.726 28.7473C406.931 30.5792 409.487 32.0142 411.973 33.4721C415.228 35.388 417.997 37.739 420.134 40.922C424.347 47.204 423.32 53.6615 420.955 60.1496C419.054 65.3706 415.297 69.065 410.696 72.0037C409.912 72.4999 409.266 73.2479 408.642 73.9578C405.38 77.6979 401.722 80.8886 397.159 82.9953C391.242 85.7279 385.226 88.1018 378.823 89.4757C375.021 90.2925 371.309 91.5901 367.499 92.3458C363.172 93.2083 358.776 93.6892 354.411 94.3685C352.7 94.6357 350.996 94.9715 349.285 95.2768C349.262 95.3608 349.255 95.4753 349.239 95.5822ZM200.911 16.1833C195.245 16.6336 189.549 16.8779 183.913 17.5725C171.107 19.1602 158.292 20.7707 145.538 22.7553C132.732 24.7476 119.97 27.068 107.239 29.5182C95.8775 31.7089 84.5232 34.0064 73.283 36.7543C63.2671 39.1969 53.5022 42.5783 44.3534 47.4482C37.6686 51.0052 31.1054 54.7988 24.5499 58.5925C22.3976 59.8366 22.1999 61.6304 24.0099 63.3631C26.1013 65.363 28.1927 67.5231 30.6795 68.9123C35.7901 71.7671 41.0528 74.4157 46.4676 76.637C50.9926 78.4994 55.7609 79.8886 60.5293 81.0183C66.0582 82.3312 71.7087 83.0945 77.2984 84.1708C83.5269 85.3615 89.7022 86.911 95.9764 87.8041C105.521 89.1628 115.126 90.1169 124.716 91.1703C127.963 91.529 131.241 91.6588 134.496 91.903C138.648 92.216 142.801 92.4984 146.938 92.8801C153.212 93.4525 159.463 94.2464 165.745 94.6662C170.772 95.002 175.829 94.9104 180.871 95.0249C182.948 95.0707 185.024 95.2539 187.1 95.2158C190.826 95.1471 194.553 94.941 198.272 94.8265C201.595 94.7273 204.919 94.7349 208.242 94.5975C213.489 94.3914 218.729 94.0937 223.977 93.8571C232.038 93.4831 240.107 93.1701 248.168 92.7503C255.31 92.3763 262.436 91.9107 269.569 91.4527C273.516 91.1932 277.463 90.926 281.402 90.5291C283.714 90.3001 286.004 89.7581 288.308 89.4681C292.955 88.8804 297.624 88.4834 302.248 87.8041C309.937 86.6668 317.61 85.3692 325.284 84.1326C329.565 83.4456 333.854 82.7816 338.121 82.0488C344.631 80.9267 351.11 79.6062 357.643 78.6215C366.138 77.3392 374.572 76.0187 382.664 72.8662C390.831 69.6833 395.41 62.035 393.562 53.9134C392.816 50.6465 391.957 47.4101 391.272 44.1355C390.771 41.7158 389.463 39.9678 387.364 38.8305C385.538 37.8382 383.645 36.9528 381.736 36.1284C371.941 31.9074 361.803 28.6633 351.278 27.0527C343.239 25.8238 335.079 25.4345 326.964 24.7476C313.032 23.5644 299.084 22.5034 285.159 21.2516C273.501 20.2059 261.865 18.9465 250.222 17.7939C233.825 16.1757 217.391 15.7253 200.911 16.1833ZM61.0084 35.9987C61.0693 36.1437 61.1301 36.2963 61.1833 36.4414C62.5446 35.9605 63.8755 35.3804 65.2596 35.0216C71.4273 33.4416 77.6026 31.8921 83.7931 30.4036C89.5577 29.0144 95.3147 27.5642 101.133 26.4345C108.411 25.0224 115.75 23.9003 123.066 22.6561C127.659 21.8699 132.252 21.0455 136.853 20.3204C139.759 19.8624 142.694 19.6258 145.599 19.1907C148.185 18.8014 150.74 18.2595 153.311 17.7786C152.794 17.5725 152.307 17.5343 151.82 17.5801C140.983 18.4961 130.138 19.3663 119.309 20.3738C113.278 20.9387 107.247 21.6028 101.254 22.4805C97.6495 23.0072 94.0295 23.7553 90.5616 24.8697C84.1354 26.9306 77.8004 29.2663 71.473 31.6249C67.9442 32.9454 64.4991 34.5331 61.0084 35.9987ZM29.265 36.4414C33.0599 35.2888 36.908 34.2812 40.6345 32.9302C43.9503 31.7242 47.1216 30.1136 50.369 28.7244C51.6542 28.1748 53.2665 28.1443 53.6315 26.2742C53.6924 25.9765 54.4149 25.6864 54.8712 25.6025C59.0767 24.7934 63.2899 24.0377 67.4955 23.2668C72.3627 22.3737 77.2528 21.5875 82.0972 20.5647C85.6259 19.8166 89.1623 19.5342 92.7367 19.1678C98.9348 18.5266 105.064 17.1374 111.217 16.0306C114.046 15.5192 116.86 14.9391 119.681 14.3895C119.149 14.0995 118.609 14.0689 118.084 14.1071C114.114 14.4124 110.114 14.5193 106.182 15.0994C99.7713 16.0383 93.3983 17.2367 87.0253 18.4121C79.8309 19.7327 72.6593 21.1982 65.4574 22.5111C58.1793 23.8392 51.0078 25.6025 44.1252 28.3122C38.8549 30.3884 33.7063 32.747 29.265 36.4414ZM373.842 80.5832C344.494 84.1173 315.686 91.1855 286.247 94.1624C315.815 92.0481 345.057 87.8499 373.842 80.5832ZM29.9038 72.1182C29.9038 72.393 29.8962 72.6601 29.8962 72.9349C29.052 73.3853 28.2231 73.8738 27.3561 74.2631C25.2799 75.1867 23.2418 74.3165 21.2341 73.9425C18.2833 73.3929 15.2109 73.0189 12.9826 70.584C12.8685 70.4618 12.5187 70.5687 11.9787 70.5687C14.8839 74.3623 18.9221 75.7363 22.7779 77.1331C26.3066 78.4078 30.0939 78.9956 33.7824 79.7741C40.2695 81.1481 46.7794 82.4457 53.2817 83.7586C53.6391 83.8273 54.0346 83.7128 54.4149 83.6823C50.9926 82.064 47.4867 80.9573 44.0416 79.6825C41.3418 78.6826 38.6192 77.6522 36.0867 76.3087C33.8965 75.1485 31.9496 73.5303 29.9038 72.1182ZM252.724 14.1682C273.493 16.2367 294.27 18.3053 315.04 20.3738C294.612 15.0536 273.866 12.8858 252.724 14.1682ZM412.764 38.7618C413.069 39.1969 413.426 39.6015 413.662 40.0747C414.681 42.0898 415.936 44.0362 416.597 46.1659C417.449 48.8909 416.377 51.593 415.7 54.2569C414.802 57.7605 413.951 61.2717 413.084 64.7829C413.289 64.8592 413.494 64.9355 413.7 65.0118C417.898 61.5541 419.799 56.8827 420.073 51.5014C420.362 46.1353 417.054 40.2121 412.764 38.7618ZM410.201 63.2715C409.989 63.1341 409.768 62.9967 409.555 62.8593C406.817 67.3399 402.756 70.2252 398.292 72.683C393.927 75.0798 389.668 77.6674 385.143 80.3008C385.63 80.3008 385.911 80.3771 386.101 80.2856C391.607 77.7132 397.113 75.1485 402.589 72.5151C404.049 71.8129 405.821 71.1946 406.711 69.9886C408.186 67.9887 409.068 65.5385 410.201 63.2715ZM27.9721 72.0953C28.0862 71.9426 28.1927 71.79 28.3067 71.6373C27.8352 71.2633 27.3409 70.9045 26.8922 70.5076C25.0138 68.836 23.0821 67.2102 21.2949 65.4393C20.3519 64.5081 19.675 63.3173 18.8689 62.241C17.7357 63.1341 16.5874 64.0119 15.4618 64.9202C15.3325 65.0271 15.2793 65.2332 15.0664 65.6149C18.7092 69.1413 23.1505 70.9885 27.9721 72.0953ZM397.303 63.844C403.152 58.7985 401.433 53.6691 395.919 48.8909C396.566 51.6617 397.402 54.0584 397.623 56.5086C397.836 58.9512 397.433 61.4472 397.303 63.844ZM258.603 101.284C258.595 101.108 258.587 100.941 258.58 100.765C243.529 100.765 228.479 100.765 213.429 100.765C228.479 102.04 243.537 101.902 258.603 101.284ZM11.6593 50.219C6.69322 52.1731 1.46856 58.2184 5.46881 64.7447C3.95541 58.3864 9.2181 54.9668 11.6593 50.219ZM259.553 100.902C259.584 101.124 259.606 101.345 259.637 101.566C267.85 100.948 276.056 100.33 284.27 99.7116C284.254 99.5132 284.239 99.3147 284.224 99.1086C275.995 99.704 267.774 100.299 259.553 100.902ZM313.138 15.3513C313.108 15.504 313.077 15.649 313.055 15.8016C320.561 17.3588 328.075 18.9159 335.581 20.4731C335.634 20.2135 335.687 19.9464 335.741 19.6869C328.204 18.2366 320.667 16.7939 313.138 15.3513ZM399.821 48.0436C400.353 44.2118 398.505 41.296 394.923 41.1433C396.611 43.5248 398.216 45.7842 399.821 48.0436ZM67.8758 91.155C67.8758 90.9947 67.8682 90.842 67.8682 90.6818C63.7995 89.9184 59.7384 89.1551 55.6697 88.3918C55.6393 88.5521 55.6088 88.7124 55.5784 88.8804C59.6851 89.636 63.7767 90.3993 67.8758 91.155ZM407.266 57.6765C407.593 57.7376 407.928 57.7986 408.255 57.8597C408.665 55.6156 409.068 53.3638 409.479 51.1197C409.319 51.0892 409.152 51.0586 408.992 51.0281C408.414 53.2417 407.844 55.4629 407.266 57.6765ZM397.95 32.5333C397.805 32.7012 397.653 32.8691 397.509 33.037C398.581 33.8156 399.653 34.5865 400.726 35.3651C400.908 35.1132 401.083 34.8613 401.266 34.6018C400.163 33.9225 399.052 33.2279 397.95 32.5333Z" fill="black"/>
</svg>
