<svg enable-background="new 0 0 441 28" viewBox="0 0 441 28" xmlns="http://www.w3.org/2000/svg"><path d="m415.8 15.8c.5.3 1.2.4 1.9.3h.1c.8.2 1.6 0 2.4.1.5 0 .9.1 1.4.1.6.1 1.2 0 1.8 0 .5 0 .9-.1 1.4 0 .2.1.5.1.8.1.8 0 1.6.1 2.4-.1h.1c.9.3 1.6 0 2.4-.2.2-.1.4-.1.6 0 .4 0 .8 0 1.1-.2 0 0 .1-.1.3-.1.2.2.3.4.7.4.1 0 .3.1.4.2.5.5 1.2.6 2 .8.9-.2 1.8.2 2.7.2.5 0 .8.3 1.1.5.3.3.3.6.6.9.3.4.1.8.1 1.1s-.1.5-.6.6c-.2 0-.3.2-.4.2-.2 0-.4.1-.5.1-.4 0-.8-.1-1.1-.1s-.6 0-.9-.1c-.5-.1-.9 0-1.2.3-.3.4-.9.5-1.5.6 0 0 0 0-.1 0-.8-.2-1.6.1-2.4 0-.9-.1-1.7-.1-2.6.1-.8.1-1.7.1-2.5.1s-1.7 0-2.5 0c-.3 0-.6.1-.9.1-.2 0-.4 0-.6 0-.6 0-1.1 0-1.7.1-.2.1-.5 0-.7 0s-.5-.1-.7-.1c-.8.2-1.6.1-2.4.1-.4 0-.7 0-1.1.1-.2.1-.4.1-.6.1-.9 0-1.7 0-2.6 0-.3 0-.6.1-1 .1-.1 0-.3.1-.4 0-.4-.2-.8-.1-1.2 0-.3 0-.6 0-.8 0-.5 0-1 0-1.5.1-.2.1-.5.1-.7.1-1 0-1.9 0-2.9 0-.2 0-.4 0-.5 0-.7.2-1.5.1-2.3.1-.6 0-1.2 0-1.9.1-.6.1-1.2 0-1.8 0s-1.2 0-1.8.2c-.2.1-.5 0-.7 0-2 0-3.9-.1-5.9-.1-.4 0-.8 0-1.2.1h-.1c-.5-.1-.9 0-1.4.1-1.2.2-2.4.1-3.6.1-.5 0-1 .1-1.5 0-.1 0-.3 0-.5 0-.7.3-1.4.2-2.2.2-.4 0-.8 0-1.2 0-.1 0-.1 0-.2 0-.8-.1-1.6 0-2.5 0-.7 0-1.4 0-2.1 0-3.5 0-7-.1-10.5-.1-.4 0-.7.1-1.1.1-.6 0-1.1 0-1.7 0-.1 0-.2-.1-.3-.1-1 .2-2.1.1-3.1.1-.7 0-1.5 0-2.2-.2-.6-.1-1.2 0-1.9 0-.3 0-.6.1-1 .1-.9 0-1.7 0-2.6 0-.3 0-.5.1-.7.1s-.4.1-.6.1c-.3 0-.6.1-.8.1-.1 0-.3.1-.4 0-.9-.2-1.8.1-2.7 0-.2 0-.5-.1-.7-.1-.1 0-.2 0-.3 0-.6 0-1.2 0-1.7.1-.5 0-.9.1-1.3.1-.2 0-.3 0-.5 0-.9-.2-1.8-.2-2.7-.1-.6.1-1.2.1-1.9.1-.1 0-.2 0-.3 0-1.3-.3-2.6-.1-3.9-.2-.1 0-.1 0-.2 0-.5.3-1.1.1-1.7.1-1.1 0-2.2 0-3.3 0-.3 0-.6 0-.9-.1-.4 0-.8 0-1.2 0-.5 0-1.1 0-1.6 0-1 .1-1.9-.1-2.8-.1-.4 0-.8.1-1.2.1-.3 0-.6 0-.9-.1-.3-.2-.7-.1-1.1-.1-1 0-1.9 0-2.9 0-1.1 0-2.2-.1-3.3-.1-1.3 0-2.7 0-4-.1-.2 0-.4 0-.6-.1-1-.3-2.1-.2-3.1-.1-.3 0-.7.1-1 .1-1.5 0-3-.1-4.5-.1-.3 0-.6.1-1 .1-.2 0-.4.1-.6.1-1.3 0-2.5-.1-3.8-.1-.2 0-.4-.1-.6-.1s-.5-.1-.7-.1c-.8 0-1.7 0-2.5 0-.4 0-.9 0-1.3-.1-.2 0-.4-.1-.5 0-.5.2-.9.1-1.4 0-.9-.1-1.8-.1-2.7-.1-.4 0-.9.1-1.3.1-.3 0-.6-.1-.9-.1-.1 0-.3-.1-.4 0-.7.2-1.5.1-2.2.1-1.6 0-3.2 0-4.8-.1-.8-.1-1.5 0-2.3 0-1.4 0-2.7 0-4.1 0-.4 0-.8-.1-1.1-.1-.2 0-.6-.1-.8 0-.5.1-1.1.1-1.6.1-2.5 0-5-.1-7.4-.1-.6 0-1.1 0-1.7-.1-.5-.1-1 0-1.5 0-.3 0-.5.1-.8.1-1.8 0-3.6-.1-5.4-.1-1 0-2 0-3 0-.1 0-.3 0-.4 0-.7.2-1.5.1-2.2.1-.9 0-1.7 0-2.6 0-.4 0-.8-.1-1.3-.2-.3.2-.9.1-1.4.2-.3 0-.7.1-1 .1-.7 0-1.4 0-2.1-.1s-1.4-.1-2.1 0c-.9.1-1.7.1-2.6-.1-.2 0-.4 0-.6 0-.4 0-.7.1-1.1.1-3.8-.1-7.5-.1-11.3-.2-.4 0-.8 0-1.2.1h-.1c-.9-.1-1.7.1-2.6.1-.2 0-.4.1-.6.1s-.4 0-.6 0c-.4-.1-.7-.1-1.1 0-.2 0-.4 0-.6 0-.4 0-.7-.1-1.1-.1-1 0-2.1-.1-3.1-.1-.4 0-.7.1-1.1.1-.1 0-.2 0-.3 0-.9-.2-1.7-.2-2.6 0-.1 0-.2 0-.3 0-.7-.2-1.4 0-2 0-.3 0-.6-.1-.8-.1-.1 0-.3 0-.4 0-.4 0-.9.1-1.3.1-4-.1-7.9-.1-11.9-.2 0 0 0 0-.1 0-.8.1-1.6 0-2.4 0-.4 0-.9 0-1.4.1-.2.1-.4 0-.6 0-3.5 0-7-.1-10.5-.2-.2 0-.3 0-.4 0-.7.2-1.5.1-2.3.1-.5 0-1 0-1.5 0-1.2 0-2.4 0-3.6-.1-.8 0-1.6-.1-2.3-.1-.8 0-1.5 0-2.3 0-.6 0-1.2 0-1.8 0-.7 0-1.4-.1-2.1.1-.4.1-.9 0-1.3 0-2 0-3.9-.1-5.9-.1-.3 0-.5.1-.8.1-.5 0-1 .1-1.6.1-1.4 0-2.7-.1-4.1-.1-.2 0-.3 0-.5 0-.1 0-.3 0-.4 0-.5-.2-1-.2-1.6 0-.1 0-.3 0-.5 0-1.2 0-2.4 0-3.7-.1-.6 0-1 .3-1.6.1-.5-.1-1.1-.1-1.6-.1-.4 0-.9.1-1.3.1-.2 0-.4 0-.6 0-3.4-.1-6.8-.1-10.1-.2-.5 0-1.1 0-1.6 0-.1 0-.3 0-.4 0-.5.3-1.1.2-1.7 0-.4-.1-.6-.1-1 0-.6.1-1.2.2-1.7-.1-.1-.1-.3-.1-.4-.1-.5 0-1 0-1.5 0-.3 0-.6.1-.8.1-.6.1-1.2.2-1.8-.1-.1-.1-.3-.1-.5-.1-.7 0-1.4-.1-2.1.1-.1 0-.1 0-.2 0-1.1-.3-2.2-.1-3.2-.2-.4 0-.8-.1-1.1-.1-.6 0-1.2 0-1.8 0-.4 0-.8.1-1.2.1-.5 0-1-.1-1.4 0-.6.1-1 .1-1.6 0-.9-.2-1.9-.2-2.9-.2-.3 0-.5.1-.8.1-.2 0-.4.1-.6 0-.9 0-1.8 0-2.7-.1-.4 0-.8-.1-1.1-.1-.2 0-.4 0-.6 0-1.3.2-2.5.1-3.8 0-.6-.1-1.3-.2-2 0-.1 0-.2 0-.3 0-.6-.2-1.2 0-1.8 0s-1.2 0-1.8-.1c-.3 0-.6-.1-1-.1-.1 0-.2 0-.3 0-.8 0-1.6 0-2.4 0-.4 0-.8.1-1.3.1-.6 0-1.1-.1-1.6-.3-.3-.1-.6-.2-.9-.2-1 0-2.1-.1-3.1-.1-.3 0-.5.1-.7.1-.3.1-.7.1-1 0s-.6-.1-.9-.2c-1.2 0-2.4-.1-3.7-.1-.3 0-.6-.1-.9-.1-.2 0-.5-.1-.7-.1-1 0-1.9 0-2.9-.1-.3 0-.6 0-.9-.2-.2-.1-.5-.1-.7-.1-.4-.1-.8-.1-1.1-.1h-.1c-.5.2-1-.1-1.5 0-.1 0-.3 0-.4-.1-.2-.1-.4-.2-.8-.1-.2 0-.4 0-.6 0-.4-.1-.7-.1-1.1 0-.1 0-.3.1-.4 0-.4-.2-.9-.1-1.3-.1-.5 0-1 0-1.5-.2-.2-.1-.5-.1-.7-.1-.8 0-1.5 0-2.3-.2-.1 0-.2 0-.3 0-.5.2-1 .1-1.5.1-.3 0-.5.1-.9.1-.4-.2-.9-.2-1.5-.2s-1.2 0-1.8-.2c-.1 0-.3 0-.5 0-1 .2-2.1.2-3.1-.1-.4-.1-.9-.2-1.3-.3-.1 0-.3 0-.4 0-.7 0-1.4 0-2 .1-1.3.1-2.6-.1-3.9 0-.1 0-.3 0-.4-.1-.6-.3-1.1-.2-1.7-.1-.2 0-.4 0-.6 0-.6-.2-1.2-.1-1.9-.1-.1 0-.2 0-.3 0-1.8-.2-3.6-.1-5.3-.2-.6 0-1.2.1-1.8 0-.2 0-.4 0-.6 0-1 0-1.6-.2-2-.8-.2-.2-.4-.3-.8-.4-.7-.2-1.3-.3-2-.5-.9-.2-1.3-.6-1.5-1.2-.1-.3-.3-.6-.3-.9 0-.2.1-.4.2-.7 0-.1.1-.2.1-.3.1-.2.1-.4.2-.5.3-.2.8-.4 1.2-.4 1-.1 2-.1 3-.2.9-.1 1.9-.1 2.8 0h1.2 2.1c.5 0 1-.1 1.4-.3.5-.2.9-.3 1.5-.3.3 0 .6 0 .9-.1.3-.2.3-.3-.1-.5-.3-.1-.7-.2-1-.2-.6 0-1.3 0-1.9-.1-.5-.1-1.1-.2-1.5-.3-1-.4-1.5-1.1-1.5-1.9-.1-.5.2-1 .3-1.5 0-.1.3-.3.5-.4.3-.1.7-.3 1.1-.4s1 0 1.4.2c.3.2.6.2 1 .2.6 0 1.3.1 1.9-.1.3-.1.6 0 .9 0 1.1.2 2.1-.1 3.2-.3.6-.1 1.3-.2 1.9-.1 1 .1 1.9.3 2.8.3.5 0 1 .2 1.5.3.7.2 1.5.2 2.2.1.8-.1 1.6-.2 2.4.1.1.1.3 0 .5.1 1 0 2 .1 3.1.1h1.6c.4 0 .8.1 1.1.1h.5c.2-.1.5-.1.7 0h.4c.7-.1 1.3-.2 2-.2h.3c.4.2.8.1 1.2 0 .3-.1.6-.3 1-.1h.3c.5-.2 1-.1 1.5-.1.4 0 .7-.2 1.1-.3.2 0 .5-.1.8-.1.5 0 1.1.1 1.6.1s1-.1 1.5 0c.3 0 .7.1 1 .1s.5.1.8.1c.7 0 1.4 0 2.1.1.8.1 1.6.2 2.4.2.6.1 1.1.2 1.7.2 1.1 0 2.2.1 3.3.1.3 0 .6.1 1 .1.7 0 1.5.1 2.2 0 .5.1 1 0 1.5 0 .4 0 .9 0 1.3-.1.1 0 .2-.1.3 0 .9.1 1.8 0 2.7 0 .7 0 1.4-.2 2.1-.3.3 0 .6-.1 1-.1h1.4c.3 0 .7-.1 1-.1s.7 0 1 0c1 0 2 0 3 .1.5 0 1.1.1 1.6.1.9.1 1.8.1 2.6 0 .5-.1 1 0 1.5 0s1 .1 1.5.2c.5 0 1 .1 1.5.1.4 0 .9-.1 1.3-.1.3 0 .6-.1 1-.1 1.3 0 2.6 0 3.9.1.3 0 .6 0 .9-.1.5-.1 1-.1 1.5 0 .3.1.5.1.8 0 .1 0 .3-.1.4-.1h2.3c.6 0 1.2.2 1.8.1.7-.1 1.4.2 2.1.1.9-.1 1.7-.1 2.6 0 .7.1 1.5 0 2.2.2h.3c.4 0 .9-.1 1.3-.1 1.5 0 3.1 0 4.6.1h.3c.5-.2 1.1-.1 1.7-.1h3.5c.2 0 .4-.1.6-.1.3-.1.7-.1.9.2.2.2.6.2.9.2.7-.2 1.5-.2 2.3-.2.4 0 .8 0 1.2-.1.3-.1.7 0 1 0 .8 0 1.7 0 2.5.2.2.1.5 0 .7 0 .3 0 .6-.1 1-.1h2.1c.5 0 .9.1 1.4.1.6 0 1.2.1 1.9 0 .2-.1.4 0 .6 0 3.7.1 7.4.1 11 .2h2s1.4 0 2.2 0c.3 0 .7 0 1-.1h.1c.7.2 1.5-.1 2.2 0 1 .1 2.1.2 3.1.2.3 0 .5-.1.8-.1.4 0 .9-.1 1.3 0 .8.2 1.6.1 2.4.1.3 0 .6-.1.8-.1h2.5c.5 0 1.1 0 1.6.2.1 0 .3.1.4 0 .8-.1 1.6 0 2.4 0h2.4c.3 0 .6-.1.8-.1s.5 0 .7 0c1 0 2.1 0 3.1.1.3 0 .6.1.9.1.1 0 .3.1.4.1 2.4 0 4.7.1 7.1.1.3 0 .6-.1.8-.1s.3 0 .5 0c1 .1 1.9.2 2.9 0 .8-.1 1.6 0 2.3 0 .2 0 .4.1.7 0h.6c.8.2 1.6.2 2.4 0 .6-.1 1.3-.1 1.9-.1 1.2 0 2.4.1 3.5.1 1.3 0 2.7.1 4 .1.5 0 1.1-.1 1.6-.1h.4c.6.1 1.2.1 1.8.2.8.1 1.5.1 2.3.1h1c1.8 0 3.6 0 5.4.1 1 0 2.1 0 3.1.1.6 0 1.3.1 1.9 0 .9-.1 1.7 0 2.6 0 1 0 2 0 2.9-.1 1.2-.1 2.4-.1 3.6 0 .5 0 1 .1 1.5 0 .8-.1 1.5.1 2.2.2.4 0 .8.1 1.2.1h4.2c.6 0 1.2 0 1.9-.1.3-.1.7 0 1.1 0 .7.1 1.4.2 2.1 0 .1 0 .3-.1.4 0 .6.2 1.2 0 1.9 0h1.8c.2 0 .4 0 .6.1.8.3 1.7.2 2.6.2h4.4c.4 0 .7.1 1.1.2s.8.1 1.2 0c.3-.1.6-.1.9-.1s.6-.1 1-.1h.9c.4 0 .8.1 1.1.1.6-.1 1.3 0 1.9-.1.9-.1 1.7 0 2.6 0 .8 0 1.6 0 2.4.1.3 0 .6.1.9.1s.5.1.8 0 .5 0 .8 0c.4.1.8.1 1.2 0 1-.1 2-.1 3 0 .2 0 .4.1.5 0 .9-.1 1.7-.1 2.6.1.1 0 .3.1.4 0 .5-.2.9 0 1.2.2.3-.1.5-.2.7-.2s.4 0 .6 0h.3c1.7-.2 3.5 0 5.2 0h3.3c1 0 2 .1 3.1.1.7 0 1.3 0 2-.1.6-.1 1.2 0 1.8 0 .8 0 1.5-.1 2.3-.1h.4c.7.2 1.5.2 2.2.2 1.2-.1 2.3 0 3.5.1h.7.4c.3.1.7.2 1 0h.1c1.7.3 3.5.1 5.3.2.4 0 .7.1 1.1.1h.4c1-.2 2.1-.3 3.2-.3.3 0 .6.1 1 .1 1.5 0 3.1.1 4.6.1.4 0 .7-.1 1.1-.1h.6c.8.2 1.5.3 2.3 0h.3c1.1 0 2.2-.1 3.3 0 1.3.1 2.6.1 3.9.1.4 0 .8-.1 1.2-.1.7 0 1.4-.1 2.1.1.5.1.9.1 1.4 0 .3-.1.7-.1 1.1-.1s.8 0 1.2-.1c.2-.1.6 0 .8 0 1.8 0 3.5.1 5.3.1h.2c.7.2 1.3 0 2 .1h2c.2 0 .3 0 .5-.1.1 0 .2-.1.3 0 .7.3 1.4 0 2 0h2c.7 0 1.5.1 2.2 0 .4 0 .7-.1 1.1-.1 1.5 0 2.9 0 4.3.1.8 0 1.6 0 2.4-.1.7-.1 1.6 0 2.3 0 .4 0 .8-.1 1.2-.1h.5 3.6c.5 0 .9-.1 1.4-.1h1.9 3.5.5c.8-.2 1.7-.2 2.5-.2.4 0 .8-.1 1.2-.1h.6 1.8.5c.7-.2 1.4-.2 2 0h.1c.9 0 1.7-.1 2.6-.1h1.8.7c.4-.1.8-.1 1.2-.1h3.2.6c.9-.2 1.8-.3 2.7-.3h1.5c.3 0 .7 0 1.1-.1h.5c.9 0 1.8-.1 2.7-.1.8 0 1.5-.1 2.2-.3.4-.1.8-.1 1.3 0 .3.1.6.1.8.1.4 0 .8-.1 1.2-.1.5 0 .9 0 1.3-.1.3-.1.7 0 1.1 0s.8.1 1.2.1c1.2 0 1.5.2 1.8.9.2.4.2.9.2 1.3s-.2.7-.5 1c-.4.4-.8.6-1.6.5-.9 0-1.8.1-2.6.2-.1 0-.1.1-.2 0-.7-.2-1.4.1-2.2.1-.7 0-1.5-.1-2.2-.1-.6 0-1.2 0-1.8.2-.1 0-.3 0-.4.1-.1 0-.3.1-.3.2s.1.2.2.2c.1.1.3.1.5.1.5.1 1.1.2 1.6.3.4.1.9.2 1.2.3.2.1.4.4.5.6.2.3.4.6.5 1 .2.5.1.9.1 1.3zm-316-1.9c-.5.1-1 .2-1.5.3-.4.1-.8.1-1.3 0s-.9-.2-1.4 0c0 0-.1 0-.2 0-.6-.1-1.2 0-1.7 0-.3 0-.6 0-.8 0-.3 0-.6 0-1 0-.3 0-.7 0-.9.1-.4.2-.8.1-1.2.1-.2 0-.4-.1-.5 0-.9.2-1.8.1-2.7 0-.3 0-.6 0-.9.1-.2.1-.4.2-.3.3s.3.3.4.3c.4 0 1 .1 1.3 0 .7-.2 1.4-.1 1.9.1.6.3 1.2.3 1.9.1.2-.1.5-.1.7-.1 1 0 2 0 3.1.1.5 0 1 .1 1.5.1h.7c.3 0 .5-.1.8 0 1.1.2 2.1.2 3.2.1h.5c.3 0 .6.1.8.1h1.5c.6 0 1.3.1 1.9-.1.3-.1.6-.1.8 0 .8.2 1.6.1 2.5.2.3 0 .6.1.8.1.3 0 .7.1 1 0 1.1-.2 2.2-.2 3.3.1h.4c.3 0 .7-.1 1-.1h1.6c.7 0 1.4 0 2.1.2h.6c.8-.2 1.6-.1 2.4 0 .4.1.9.1 1.4 0 .4 0 .9-.1 1.4-.1 1.5 0 3 0 4.5.1.3 0 .6.1.9.1.5.1.9.2 1.4.1.3-.1.6-.1.9-.1h3.3c.7 0 1.4-.1 2 .1h.3c.5 0 1-.1 1.6-.1 1.1 0 2.2 0 3.3.1h.4c.3 0 .7.1 1 .1 1.9 0 3.8.1 5.7.1 1.3 0 2.6.1 3.8.2h1.1c.5 0 1.1-.1 1.6-.1h2.4.8s.6-.1.9-.1c1.7 0 3.4 0 5.2.1.7 0 1.4 0 2 .2h.4 2.2.5c.4 0 .8-.1 1.2-.1 1.2 0 2.4 0 3.7.1.3 0 .6.1.8.1.7 0 1.4.1 2.1.1.4 0 .8-.1 1.3-.1h2.6.4c.6.1 1.2 0 1.8.2.2.1.5 0 .7-.1h.9c.4 0 .7.1 1.1.1.8 0 1.6.1 2.4.1h.8c.5-.1 1-.1 1.5-.1.8.1 1.5.1 2.2.1s1.5 0 2.2 0c1.4 0 2.8 0 4.2.1.7 0 1.5.1 2.2 0 1-.1 2 0 2.9 0 1 .1 1.9 0 2.9 0 1.4.1 2.9.1 4.3.1h.6c.7 0 1.4-.1 2.1-.1.8 0 1.7.1 2.5.1.6 0 1.2-.1 1.7-.2h.4c.9.2 1.9.1 2.8.1.3 0 .6-.1 1-.1 1.1.1 2.1-.2 3.2-.1.3 0 .5 0 .8.1h.4c.3 0 .7-.1 1-.1h5 .3c.9-.2 1.9-.1 2.8 0h.7c.3 0 .6-.1.9-.1h2.2c.2 0 .4 0 .6-.1.5 0 .9-.1 1.4-.1 1.4 0 2.8.1 4.2 0 .4 0 .8-.1 1.2-.1h.5c.5.1 1 .2 1.5.1 1-.1 1.9-.2 2.9-.2h.4c.6-.1 1.2-.1 1.9 0 .6.1 1.2.1 1.8.1h.2c.2 0 .4-.1.6-.1 1 0 2 0 3-.2h.3c.5.2 1 .2 1.4 0h.5 3.5c.6 0 1.2-.1 1.8 0 1.1.2 2.2-.2 3.3-.2h.1c.1 0 .1-.1.1-.1l-.1-.1c-.2 0-.4-.1-.6-.1-.8 0-1.6 0-2.4 0-2.8-.1-5.5-.1-8.3-.2-.4 0-.8-.1-1.1-.1-.2 0-.3 0-.5 0-.5 0-.9.1-1.4.1-.7 0-1.4-.1-2.1.1-.1 0-.4 0-.6 0-.1 0-.2-.1-.3 0-.4.1-.8.1-1.3 0-.1 0-.3 0-.4 0-.7.2-1.4.1-2 0-.1 0-.3 0-.5 0-.7 0-1.4 0-2.1.1-1 .1-2 0-3 0-.1 0-.2 0-.3 0-.3 0-.6-.1-.9-.1-.4-.1-.9-.1-1.3-.2-.1 0-.2 0-.3 0-.6 0-1.2.1-1.8.1-1.5 0-3.1 0-4.6 0-4.2-.1-8.4-.2-12.6-.2-.3 0-.6.1-.9.1s-.5 0-.8 0-.7-.1-1-.1c-.6 0-1.1.1-1.7.1-.7 0-1.4 0-2.1 0-1.7 0-3.3 0-5 0-.9 0-1.8 0-2.7 0-.1 0-.3 0-.4 0-.3 0-.6.1-.9.1-1.9 0-3.8-.1-5.8-.1-.8 0-1.6-.2-2.4-.2-1.6-.1-3.2-.1-4.8-.1-.6 0-1.2-.1-1.8-.3-.5-.2-.9-.2-1.4-.1-.3 0-.6.1-.8.1-.9 0-1.8 0-2.7 0-.3 0-.7-.1-1-.1-.5 0-1.1-.1-1.6 0-.4 0-.9.1-1.3.1-.3 0-.6 0-1 0-1.3.1-2.6 0-4-.1-.4 0-.9 0-1.4 0-.4 0-.8.1-1.2.1-1-.1-1.9-.1-2.9-.1s-2.1 0-3.1 0c-.7 0-1.4.1-2.1 0-.2 0-.4 0-.6 0-.5 0-1 0-1.4 0-.5 0-1 .2-1.5 0-.1 0-.2 0-.3 0-.3 0-.6.1-.9.1-.5 0-1.1-.1-1.6 0-.9.1-1.7 0-2.5 0-.8-.1-1.7 0-2.5-.2-.2-.1-.5 0-.7 0-.8.1-1.6.1-2.3 0-.6-.1-1.1-.1-1.7-.2-1 0-1.9-.1-2.9-.1-.5 0-1-.1-1.4-.1-1.2-.1-2.5.1-3.7-.3 0 0 0 0-.1 0-.4 0-.9.1-1.3.1-.7 0-1.4.1-2 0-.8-.1-1.6-.2-2.4-.2-2.4-.1-4.8-.1-7.2-.1-.3 0-.6 0-.8 0-.5.2-1 .2-1.5.1-1.3 0-2.5 0-3.8-.1-1-.1-2-.1-3 .1-.4.1-.8 0-1.1 0-.5-.1-1-.1-1.5-.1-.2 0-.4 0-.6 0-1.9.1-3.9-.1-5.8.1-2-.1-3.9.1-5.9-.2-.1 0-.1 0-.2 0-.7.2-1.5 0-2.3.1-.3 0-.6.1-.9.1-.7.1-1.3.2-2 0-.5-.2-.9-.2-1.4 0-.3.1-.7.1-1 .1-.1 0-.3 0-.5 0 .2.1-.2.1-.5-.1zm267.7 1.1c.3-.1.7 0 1-.1.2 0 .4-.1.6-.1.8-.1 1.6-.3 2.5-.2h2.7.8s.6-.1.8-.1c.9 0 1.8 0 2.7-.2.2 0 .4 0 .6.1.4 0 .9.1 1.3 0 .9-.1 1.8-.3 2.7-.2h.5s.5-.1.5-.1c.1-.1 0-.3-.1-.4-.4-.4-.9-.3-1.5-.2-.4 0-.8.1-1.2.1-.6 0-1.3-.1-1.9 0-1.1 0-2.2-.1-3.2.1-.1 0-.3 0-.5 0-.7-.1-1.3-.2-2 0-.2 0-.4 0-.6 0-.7 0-1.4 0-2.1 0-.2 0-.4 0-.6 0s-.4 0-.6 0c-.5-.1-.9-.2-1.4-.2-1.2 0-2.4.1-3.5.2-.7 0-1.5.1-2.2.2-.8.1-1.7.1-2.5.1-.2 0-.3 0-.5.1-.4.1-.8.1-1.2.1-1.1 0-2.1 0-3.2 0-.3 0-.6 0-.8 0-.5.1-.9.1-1.3 0-.3-.1-.5 0-.5.3 0 .2.2.3.5.3.9 0 1.7.1 2.6.1 1.1-.1 2.2 0 3.3 0s2.2.1 3.3.1h.6c1-.2 2-.1 3 0 .4-.2.9-.1 1.4 0zm-286.4-.2v-.1c-.2-.1-.3-.1-.6.1z" fill="#28e800"/></svg>