<svg enable-background="new 0 0 28 152" viewBox="0 0 28 152" xmlns="http://www.w3.org/2000/svg" xmlns:xlink="http://www.w3.org/1999/xlink"><clipPath id="a"><path d="m0 0h28v152h-28z"/></clipPath><g clip-path="url(#a)"><path d="m20.6 132c-.3 0-.6 0-1 0 .1-.2.1-.4.2-.5.9-.5 1.1-1.4 1-2.6-.1-2.7-.2-5.4-.3-8.1-.1-3.6 0-7.3-.2-10.9-.3-4.5-.5-9.1-.4-13.7 0-3.8 0-7.5 0-11.4-.4 0-.8 0-1.1 0 .4-.6.9-1.1 1-1.7.1-.7-.3-1.5-.3-2.3 0-.9.1-1.9.1-2.8.1-3.6.2-7.3.3-10.9.1-6 .3-11.9.4-17.9.1-4.9 0-9.9.1-14.8.1-4.1.4-8.1.6-12.2.1-1.5.3-3.1 0-4.6-.2-1.2-.7-2.5-1.5-3.2-1.9-1.8-2-2.1-.8-4.6.1-.2.2-.4.4-.9-2-.9-3.9-2.3-6-2.1-2.5.2-5 .5-7.5.9-2.1.4-3.8-.5-5.2-2.5-1-1.5-.1-3.9 1.7-4.2s3.7-.3 5.5-.4c.4 0 .8 0 1.2-.1.4 0 1.1-1 1.2.5 0 .1.5.2.7.1 3.2-.2 6.3-.5 9.5-.8 1.2-.1 2.4-.3 3.7-.3 1 0 1.6.9 1.6 2.1 0 2.5-.2 4.9-.1 7.3.1 2.6.4 5.1.7 7.7.7 7.7.9 15.4.8 23.2-.1 6.1 0 12.2.2 18.4.1 5.1 0 10.1.1 15.2.1 4.6.1 9.3.3 13.9.1 2.9.4 5.8.4 8.8.1 4.4 0 8.7 0 13.1 0 3.6.1 7.2 0 10.8 0 2.9-.2 5.8-.2 8.7 0 1.1.1 2.1.1 3.2 0 2.8-.1 5.7-.1 8.5 0 1 0 1.9.2 2.9.3 2 .1 3.6-1.6 4.5-.2.1-.3.6-.5.8-.5.9-1 1.4-2.1 1.2-.8-.1-1.6.3-2.4.5-1.2.3-2.5.7-3.7.8-1.7.2-3.5.4-5.3.4-1.1 0-2.3-.2-3.4-.5s-2.2-.7-3.3-1c-1.8-.5-2.2-1.9-1-3.8.1-.1.2-.3.2-.4-.2-1.7.7-2.4 1.7-3s1.9-.7 3-.3c3 1.3 6.2.5 9.2.3 1.3-.1 2.4-2.1 2.3-3.8-.1-2.4-.2-4.9-.4-7.5z" fill="#28e800"/></g></svg>